<svg width="12" height="12" viewBox="0 0 12 12" fill="none" xmlns="http://www.w3.org/2000/svg">
<g id="arrow">
<g id="Black">
<path id="Vector" d="M3.15206 0.030468C2.94113 0.10078 2.75128 0.269531 2.64581 0.480469C2.59659 0.581249 2.58956 0.630468 2.58956 0.832031C2.58956 1.24219 2.38566 1.00781 5.03644 3.66094L7.37081 6L5.03644 8.33672C2.38566 10.9922 2.58956 10.7578 2.58956 11.168C2.58956 11.3812 2.59659 11.4141 2.65753 11.5383C2.73956 11.6977 2.89425 11.85 3.05831 11.9297C3.15909 11.9812 3.20831 11.9883 3.42159 11.9883C3.64659 11.9883 3.67941 11.9836 3.79659 11.9227C3.90206 11.8664 4.42472 11.3555 6.59034 9.19219C8.80519 6.97969 9.26925 6.50391 9.33253 6.38672C9.40519 6.25312 9.40988 6.23438 9.40988 6C9.40988 5.76562 9.40519 5.74687 9.33253 5.61328C9.26925 5.49609 8.80519 5.02031 6.59034 2.80781C4.38956 0.609375 3.90206 0.133594 3.79659 0.0796871C3.68878 0.0257807 3.63253 0.0140619 3.45675 0.00703049C3.3255 0.00234318 3.21066 0.0117188 3.15206 0.030468Z" fill="#121212"/>
</g>
</g>
</svg>
