<svg width="24" height="24" viewBox="0 0 24 24" fill="none" xmlns="http://www.w3.org/2000/svg">
<g clip-path="url(#clip0_78_760)">
<path d="M13.5 0.070507C15.3234 0.295507 17.0906 0.951757 18.614 1.96426C20.9765 3.53457 22.6968 5.83144 23.5031 8.50332C23.6953 9.12207 23.8828 10.0643 23.9531 10.6971C24.014 11.283 24.014 12.7174 23.9531 13.3033C23.4468 18.0564 20.0859 22.1158 15.4968 23.5033C14.8781 23.6955 13.9359 23.883 13.3031 23.9533C12.7171 24.0143 11.2828 24.0143 10.6968 23.9533C7.92183 23.658 5.34839 22.3971 3.37026 20.3627C2.01558 18.9611 1.05464 17.3393 0.496828 15.4971C0.149952 14.358 -4.76837e-05 13.3033 -4.76837e-05 12.0002C-4.76837e-05 11.0205 0.0468273 10.4814 0.215578 9.63301C1.06401 5.32051 4.27964 1.77676 8.50308 0.49707C9.12183 0.304882 10.064 0.117382 10.6968 0.0470695C11.3109 -0.0185566 12.8953 -0.00449371 13.5 0.070507ZM10.514 1.64082C9.36558 1.80957 8.36245 2.12363 7.33589 2.63457C4.63589 3.98457 2.62964 6.4502 1.87026 9.36113C1.43433 11.0252 1.43433 12.9752 1.87026 14.6393C2.82183 18.2861 5.71401 21.1783 9.36089 22.1299C11.025 22.5658 12.975 22.5658 14.639 22.1299C17.1468 21.4783 19.3546 19.8799 20.7796 17.6955C21.375 16.7814 21.8531 15.6939 22.1296 14.6393C22.5656 12.9752 22.5656 11.0252 22.1296 9.36113C21.075 5.31582 17.6812 2.26894 13.5328 1.64082C12.7171 1.51894 11.339 1.51894 10.514 1.64082Z" fill="#DDDDDD"/>
<path d="M12.1219 6.89542C12.3328 6.95636 12.5906 7.26105 12.6328 7.49542C12.6984 7.88449 12.6656 7.92198 10.9547 9.6423L9.35156 11.2501H13.4297C17.4141 11.2501 17.5125 11.2548 17.6625 11.3439C17.8875 11.4845 18 11.6954 18 12.0001C18 12.3048 17.8875 12.5157 17.6625 12.6564C17.5125 12.7454 17.4141 12.7501 13.4297 12.7501H9.35156L10.9547 14.3532C12.6703 16.0829 12.6984 16.1157 12.6328 16.5142C12.5859 16.786 12.2859 17.086 12.0141 17.1329C11.6063 17.1985 11.625 17.2173 9.24375 14.8407C8.025 13.6267 6.99375 12.5767 6.95625 12.5064C6.86719 12.3376 6.86719 11.6626 6.95625 11.4939C6.99375 11.4235 8.01094 10.3829 9.22031 9.17824C10.725 7.67355 11.4703 6.96573 11.5875 6.91417C11.7797 6.83449 11.9063 6.8298 12.1219 6.89542Z" fill="#DDDDDD"/>
</g>
<defs>
<clipPath id="clip0_78_760">
<rect width="24" height="24" fill="white" transform="matrix(-1 0 0 1 24 0)"/>
</clipPath>
</defs>
</svg>
