<svg width="24" height="24" viewBox="0 0 24 24" fill="none" xmlns="http://www.w3.org/2000/svg">
<g clip-path="url(#clip0_78_756)">
<path d="M10.5 0.070507C8.67661 0.295507 6.90942 0.951757 5.38599 1.96426C3.02349 3.53457 1.30317 5.83144 0.496924 8.50332C0.304736 9.12207 0.117236 10.0643 0.0469238 10.6971C-0.0140137 11.283 -0.0140137 12.7174 0.0469238 13.3033C0.553174 18.0564 3.91411 22.1158 8.50317 23.5033C9.12192 23.6955 10.0641 23.883 10.6969 23.9533C11.2829 24.0143 12.7172 24.0143 13.3032 23.9533C16.0782 23.658 18.6516 22.3971 20.6297 20.3627C21.9844 18.9611 22.9454 17.3393 23.5032 15.4971C23.85 14.358 24 13.3033 24 12.0002C24 11.0205 23.9532 10.4814 23.7844 9.63301C22.936 5.32051 19.7204 1.77676 15.4969 0.49707C14.8782 0.304882 13.936 0.117382 13.3032 0.0470695C12.6891 -0.0185566 11.1047 -0.00449371 10.5 0.070507ZM13.486 1.64082C14.6344 1.80957 15.6375 2.12363 16.6641 2.63457C19.3641 3.98457 21.3704 6.4502 22.1297 9.36113C22.5657 11.0252 22.5657 12.9752 22.1297 14.6393C21.1782 18.2861 18.286 21.1783 14.6391 22.1299C12.975 22.5658 11.025 22.5658 9.36099 22.1299C6.85317 21.4783 4.64536 19.8799 3.22036 17.6955C2.62505 16.7814 2.14692 15.6939 1.87036 14.6393C1.43442 12.9752 1.43442 11.0252 1.87036 9.36113C2.92505 5.31582 6.3188 2.26894 10.4672 1.64082C11.2829 1.51894 12.661 1.51894 13.486 1.64082Z" fill="#999999"/>
<path d="M11.8781 6.89542C11.6672 6.95636 11.4094 7.26105 11.3672 7.49542C11.3016 7.88449 11.3344 7.92198 13.0453 9.6423L14.6484 11.2501H10.5703C6.58594 11.2501 6.4875 11.2548 6.3375 11.3439C6.1125 11.4845 6 11.6954 6 12.0001C6 12.3048 6.1125 12.5157 6.3375 12.6564C6.4875 12.7454 6.58594 12.7501 10.5703 12.7501H14.6484L13.0453 14.3532C11.3297 16.0829 11.3016 16.1157 11.3672 16.5142C11.4141 16.786 11.7141 17.086 11.9859 17.1329C12.3937 17.1985 12.375 17.2173 14.7562 14.8407C15.975 13.6267 17.0062 12.5767 17.0437 12.5064C17.1328 12.3376 17.1328 11.6626 17.0437 11.4939C17.0062 11.4235 15.9891 10.3829 14.7797 9.17824C13.275 7.67355 12.5297 6.96573 12.4125 6.91417C12.2203 6.83449 12.0937 6.8298 11.8781 6.89542Z" fill="#999999"/>
</g>
<defs>
<clipPath id="clip0_78_756">
<rect width="24" height="24" fill="white"/>
</clipPath>
</defs>
</svg>
