<svg width="290" height="89" viewBox="0 0 290 89" fill="none" xmlns="http://www.w3.org/2000/svg">
<path fill-rule="evenodd" clip-rule="evenodd" d="M219.051 0C216.912 0 215.178 1.73372 215.178 3.87236V50.4057L204.641 45.6656C202.932 44.8972 201 46.1468 201 48.02L201 58.2064L201 72.7579L201 72.7579V84.9296C201 87.0682 202.734 88.8019 204.872 88.8019H296.377C298.515 88.8019 300.249 87.0682 300.249 84.9296V58.6887C300.573 57.7626 300.149 56.7231 299.242 56.298L275.381 45.1229C274.09 44.5182 272.553 45.0747 271.949 46.3658L269.956 50.6204L258.46 45.2362V22.7301C258.46 21.3043 257.304 20.1485 255.878 20.1485H249.848C248.422 20.1485 247.267 21.3043 247.267 22.7301V53.0848L231.596 45.7452V3.87235C231.596 1.73371 229.862 0 227.723 0H219.051ZM236.073 66.415H229.357V76.116H236.073V66.415ZM247.267 66.415H253.983V76.116H247.267V66.415ZM271.892 66.415H265.176V76.116H271.892V66.415Z" fill="#2E60FF" fill-opacity="0.1"/>
<path fill-rule="evenodd" clip-rule="evenodd" d="M110.051 0C107.912 0 106.178 1.73372 106.178 3.87236V50.4057L95.6407 45.6656C93.9324 44.8972 92.0001 46.1468 92.0001 48.02L92.0001 58.2064L92 72.7579L92.0001 72.7579V84.9296C92.0001 87.0682 93.7338 88.8019 95.8724 88.8019H187.377C189.515 88.8019 191.249 87.0682 191.249 84.9296V58.6887C191.573 57.7626 191.149 56.7231 190.242 56.298L166.381 45.1229C165.09 44.5182 163.553 45.0747 162.949 46.3658L160.956 50.6204L149.46 45.2362V22.7301C149.46 21.3043 148.304 20.1485 146.878 20.1485H140.848C139.422 20.1485 138.267 21.3043 138.267 22.7301V53.0848L122.596 45.7452V3.87235C122.596 1.73371 120.862 0 118.723 0H110.051ZM127.073 66.415H120.357V76.116H127.073V66.415ZM138.267 66.415H144.983V76.116H138.267V66.415ZM162.892 66.415H156.176V76.116H162.892V66.415Z" fill="#2E60FF" fill-opacity="0.1"/>
<path fill-rule="evenodd" clip-rule="evenodd" d="M1.05081 0C-1.08783 0 -2.82154 1.73372 -2.82154 3.87236V50.4057L-13.3593 45.6656C-15.0676 44.8972 -16.9999 46.1468 -16.9999 48.02L-16.9999 58.2064L-17 72.7579L-16.9999 72.7579V84.9296C-16.9999 87.0682 -15.2662 88.8019 -13.1276 88.8019H78.3766C80.5152 88.8019 82.2489 87.0682 82.2489 84.9296V58.6887C82.573 57.7626 82.1495 56.7231 81.2417 56.298L57.3815 45.1229C56.0903 44.5182 54.5534 45.0747 53.9487 46.3658L51.956 50.6204L40.46 45.2362V22.7301C40.46 21.3043 39.3042 20.1485 37.8785 20.1485H31.8481C30.4223 20.1485 29.2665 21.3043 29.2665 22.7301V53.0848L13.5956 45.7452V3.87235C13.5956 1.73371 11.8619 0 9.72322 0H1.05081ZM18.0729 66.415H11.3569V76.116H18.0729V66.415ZM29.2666 66.415H35.9826V76.116H29.2666V66.415ZM53.8921 66.415H47.176V76.116H53.8921V66.415Z" fill="#2E60FF" fill-opacity="0.1"/>
</svg>
