<svg width="680" height="131" viewBox="0 0 680 131" fill="none" xmlns="http://www.w3.org/2000/svg">
<path fill-rule="evenodd" clip-rule="evenodd" d="M27.5187 0C23.8712 0 20.9143 2.9569 20.9143 6.60444V74.3514L6.2093 67.7368C3.29574 66.4262 0.000122238 68.5575 0.000112164 71.7522L0 107.322L0.00016729 107.322V124.384C0.00016729 128.031 2.95709 130.988 6.60462 130.988H139.794C143.442 130.988 146.399 128.031 146.399 124.384V86.1326C146.516 84.7907 145.8 83.4579 144.509 82.8534L110.256 66.8111C108.054 65.7797 105.433 66.7288 104.402 68.9309L101.715 74.6681L84.7573 66.7261V34.1229C84.7573 31.6912 82.786 29.7199 80.3543 29.7199H72.6492C70.2175 29.7199 68.2462 31.6912 68.2462 34.1229V78.3032L45.1306 67.4769V6.60445C45.1306 2.95691 42.1736 0 38.5261 0H27.5187ZM51.7348 97.9661H41.8282V112.276H51.7348V97.9661ZM68.2461 97.9661H78.1527V112.276H68.2461V97.9661ZM104.57 97.9661H94.6637V112.276H104.57V97.9661Z" fill="white" fill-opacity="0.2"/>
<path fill-rule="evenodd" clip-rule="evenodd" d="M211.519 0C207.871 0 204.914 2.9569 204.914 6.60444V74.3514L190.209 67.7368C187.296 66.4262 184 68.5575 184 71.7522L184 107.322L184 107.322V124.384C184 128.031 186.957 130.988 190.605 130.988H323.794C327.442 130.988 330.399 128.031 330.399 124.384V86.1326C330.516 84.7907 329.8 83.4579 328.509 82.8534L294.256 66.8111C292.054 65.7797 289.433 66.7288 288.402 68.9309L285.715 74.6681L268.757 66.7261V34.1229C268.757 31.6912 266.786 29.7199 264.354 29.7199H256.649C254.217 29.7199 252.246 31.6912 252.246 34.1229V78.3032L229.131 67.4769V6.60445C229.131 2.95691 226.174 0 222.526 0H211.519ZM235.735 97.9661H225.828V112.276H235.735V97.9661ZM252.246 97.9661H262.153V112.276H252.246V97.9661ZM288.57 97.9661H278.664V112.276H288.57V97.9661Z" fill="white" fill-opacity="0.2"/>
<path fill-rule="evenodd" clip-rule="evenodd" d="M395.519 0C391.871 0 388.914 2.9569 388.914 6.60444V74.3514L374.209 67.7368C371.296 66.4262 368 68.5575 368 71.7522L368 107.322L368 107.322V124.384C368 128.031 370.957 130.988 374.605 130.988H507.794C511.442 130.988 514.399 128.031 514.399 124.384V86.1326C514.516 84.7907 513.8 83.4579 512.509 82.8534L478.256 66.8111C476.054 65.7797 473.433 66.7288 472.402 68.9309L469.715 74.6681L452.757 66.7261V34.1229C452.757 31.6912 450.786 29.7199 448.354 29.7199H440.649C438.217 29.7199 436.246 31.6912 436.246 34.1229V78.3032L413.131 67.4769V6.60445C413.131 2.95691 410.174 0 406.526 0H395.519ZM419.735 97.9661H409.828V112.276H419.735V97.9661ZM436.246 97.9661H446.153V112.276H436.246V97.9661ZM472.57 97.9661H462.664V112.276H472.57V97.9661Z" fill="white" fill-opacity="0.2"/>
<path fill-rule="evenodd" clip-rule="evenodd" d="M579.519 0C575.871 0 572.914 2.9569 572.914 6.60444V74.3514L558.209 67.7368C555.296 66.4262 552 68.5575 552 71.7522L552 107.322L552 107.322V124.384C552 128.031 554.957 130.988 558.605 130.988H691.794C695.442 130.988 698.399 128.031 698.399 124.384V86.1381C698.519 84.7944 697.802 83.4588 696.509 82.8535L662.257 66.8111C660.055 65.7798 657.433 66.7289 656.402 68.931L653.715 74.6683L636.757 66.7261V34.1229C636.757 31.6912 634.786 29.7199 632.354 29.7199H624.649C622.217 29.7199 620.246 31.6912 620.246 34.1229V78.3032L597.131 67.4769V6.60445C597.131 2.95691 594.174 0 590.526 0H579.519ZM603.735 97.9661H593.828V112.276H603.735V97.9661ZM620.246 97.9661H630.153V112.276H620.246V97.9661ZM656.571 97.9661H646.664V112.276H656.571V97.9661Z" fill="white" fill-opacity="0.2"/>
</svg>
