<svg width="645" height="89" viewBox="0 0 645 89" fill="none" xmlns="http://www.w3.org/2000/svg">
<path fill-rule="evenodd" clip-rule="evenodd" d="M563.051 0C560.912 0 559.178 1.73372 559.178 3.87236V50.4057L548.641 45.6656C546.932 44.8972 545 46.1468 545 48.02L545 58.2064L545 72.7579L545 72.7579V84.9296C545 87.0682 546.734 88.8019 548.872 88.8019H640.377C642.515 88.8019 644.249 87.0682 644.249 84.9296V58.6887C644.573 57.7626 644.149 56.7231 643.242 56.298L619.381 45.1229C618.09 44.5182 616.553 45.0747 615.949 46.3658L613.956 50.6204L602.46 45.2362V22.7301C602.46 21.3043 601.304 20.1485 599.878 20.1485H593.848C592.422 20.1485 591.267 21.3043 591.267 22.7301V53.0848L575.596 45.7452V3.87235C575.596 1.73371 573.862 0 571.723 0H563.051ZM580.073 66.415H573.357V76.116H580.073V66.415ZM591.267 66.415H597.983V76.116H591.267V66.415ZM615.892 66.415H609.176V76.116H615.892V66.415Z" fill="#2E60FF" fill-opacity="0.1"/>
<path fill-rule="evenodd" clip-rule="evenodd" d="M454.051 0C451.912 0 450.178 1.73372 450.178 3.87236V50.4057L439.641 45.6656C437.932 44.8972 436 46.1468 436 48.02L436 58.2064L436 72.7579L436 72.7579V84.9296C436 87.0682 437.734 88.8019 439.872 88.8019H531.377C533.515 88.8019 535.249 87.0682 535.249 84.9296V58.6887C535.573 57.7626 535.149 56.7231 534.242 56.298L510.381 45.1229C509.09 44.5182 507.553 45.0747 506.949 46.3658L504.956 50.6204L493.46 45.2362V22.7301C493.46 21.3043 492.304 20.1485 490.878 20.1485H484.848C483.422 20.1485 482.267 21.3043 482.267 22.7301V53.0848L466.596 45.7452V3.87235C466.596 1.73371 464.862 0 462.723 0H454.051ZM471.073 66.415H464.357V76.116H471.073V66.415ZM482.267 66.415H488.983V76.116H482.267V66.415ZM506.892 66.415H500.176V76.116H506.892V66.415Z" fill="#2E60FF" fill-opacity="0.1"/>
<path fill-rule="evenodd" clip-rule="evenodd" d="M345.051 0C342.912 0 341.178 1.73372 341.178 3.87236V50.4057L330.641 45.6656C328.932 44.8972 327 46.1468 327 48.02L327 58.2064L327 72.7579L327 72.7579V84.9296C327 87.0682 328.734 88.8019 330.872 88.8019H422.377C424.515 88.8019 426.249 87.0682 426.249 84.9296V58.6887C426.573 57.7626 426.149 56.7231 425.242 56.298L401.381 45.1229C400.09 44.5182 398.553 45.0747 397.949 46.3658L395.956 50.6204L384.46 45.2362V22.7301C384.46 21.3043 383.304 20.1485 381.878 20.1485H375.848C374.422 20.1485 373.267 21.3043 373.267 22.7301V53.0848L357.596 45.7452V3.87235C357.596 1.73371 355.862 0 353.723 0H345.051ZM362.073 66.415H355.357V76.116H362.073V66.415ZM373.267 66.415H379.983V76.116H373.267V66.415ZM397.892 66.415H391.176V76.116H397.892V66.415Z" fill="#2E60FF" fill-opacity="0.1"/>
<path fill-rule="evenodd" clip-rule="evenodd" d="M236.051 0C233.912 0 232.178 1.73372 232.178 3.87236V50.4057L221.641 45.6656C219.932 44.8972 218 46.1468 218 48.02L218 58.2064L218 72.7579L218 72.7579V84.9296C218 87.0682 219.734 88.8019 221.872 88.8019H313.377C315.515 88.8019 317.249 87.0682 317.249 84.9296V58.6887C317.573 57.7626 317.149 56.7231 316.242 56.298L292.381 45.1229C291.09 44.5182 289.553 45.0747 288.949 46.3658L286.956 50.6204L275.46 45.2362V22.7301C275.46 21.3043 274.304 20.1485 272.878 20.1485H266.848C265.422 20.1485 264.267 21.3043 264.267 22.7301V53.0848L248.596 45.7452V3.87235C248.596 1.73371 246.862 0 244.723 0H236.051ZM253.073 66.415H246.357V76.116H253.073V66.415ZM264.267 66.415H270.983V76.116H264.267V66.415ZM288.892 66.415H282.176V76.116H288.892V66.415Z" fill="#2E60FF" fill-opacity="0.1"/>
<path fill-rule="evenodd" clip-rule="evenodd" d="M127.051 0C124.912 0 123.178 1.73372 123.178 3.87236V50.4057L112.641 45.6656C110.932 44.8972 109 46.1468 109 48.02L109 58.2064L109 72.7579L109 72.7579V84.9296C109 87.0682 110.734 88.8019 112.872 88.8019H204.377C206.515 88.8019 208.249 87.0682 208.249 84.9296V58.6887C208.573 57.7626 208.149 56.7231 207.242 56.298L183.381 45.1229C182.09 44.5182 180.553 45.0747 179.949 46.3658L177.956 50.6204L166.46 45.2362V22.7301C166.46 21.3043 165.304 20.1485 163.878 20.1485H157.848C156.422 20.1485 155.267 21.3043 155.267 22.7301V53.0848L139.596 45.7452V3.87235C139.596 1.73371 137.862 0 135.723 0H127.051ZM144.073 66.415H137.357V76.116H144.073V66.415ZM155.267 66.415H161.983V76.116H155.267V66.415ZM179.892 66.415H173.176V76.116H179.892V66.415Z" fill="#2E60FF" fill-opacity="0.1"/>
<path fill-rule="evenodd" clip-rule="evenodd" d="M18.0508 0C15.9122 0 14.1785 1.73372 14.1785 3.87236V50.4057L3.64068 45.6656C1.93239 44.8972 8.30969e-05 46.1468 7.72477e-05 48.02L7.15627e-05 58.2064L0 72.7579L7.15627e-05 72.7579V84.9296C7.15627e-05 87.0682 1.73379 88.8019 3.87243 88.8019H95.3766C97.5152 88.8019 99.2489 87.0682 99.2489 84.9296V58.6887C99.573 57.7626 99.1495 56.7231 98.2417 56.298L74.3815 45.1229C73.0903 44.5182 71.5534 45.0747 70.9487 46.3658L68.956 50.6204L57.46 45.2362V22.7301C57.46 21.3043 56.3042 20.1485 54.8785 20.1485H48.8481C47.4223 20.1485 46.2665 21.3043 46.2665 22.7301V53.0848L30.5956 45.7452V3.87235C30.5956 1.73371 28.8619 0 26.7232 0H18.0508ZM35.0729 66.415H28.3569V76.116H35.0729V66.415ZM46.2666 66.415H52.9826V76.116H46.2666V66.415ZM70.8921 66.415H64.176V76.116H70.8921V66.415Z" fill="#2E60FF" fill-opacity="0.1"/>
</svg>
