<svg width="21" height="21" viewBox="0 0 21 21" fill="none" xmlns="http://www.w3.org/2000/svg">
<g filter="url(#filter0_d_956_2320)">
<path d="M1 1H4L4.4 3M4.4 3H20L16 11H6M4.4 3L6 11M6 11L3.707 13.293C3.077 13.923 3.523 15 4.414 15M6 11L3.54602 13.5L3.707 14.5L4.414 15M4.414 15H16M16 15C15.4696 15 14.9609 15.2107 14.5858 15.5858C14.2107 15.9609 14 16.4696 14 17C14 17.5304 14.2107 18.0391 14.5858 18.4142C14.9609 18.7893 15.4696 19 16 19C16.5304 19 17.0391 18.7893 17.4142 18.4142C17.7893 18.0391 18 17.5304 18 17C18 16.4696 17.7893 15.9609 17.4142 15.5858C17.0391 15.2107 16.5304 15 16 15ZM8 17C8 17.5304 7.78929 18.0391 7.41422 18.4142C7.03914 18.7893 6.53043 19 6 19C5.46957 19 4.96086 18.7893 4.58579 18.4142C4.21071 18.0391 4 17.5304 4 17C4 16.4696 4.21071 15.9609 4.58579 15.5858C4.96086 15.2107 5.46957 15 6 15C6.53043 15 7.03914 15.2107 7.41422 15.5858C7.78929 15.9609 8 16.4696 8 17Z" stroke="white" stroke-width="2" stroke-linecap="round" stroke-linejoin="round" shape-rendering="crispEdges"/>
</g>
<defs>
<filter id="filter0_d_956_2320" x="0" y="0" width="21" height="20.5" filterUnits="userSpaceOnUse" color-interpolation-filters="sRGB">
<feFlood flood-opacity="0" result="BackgroundImageFix"/>
<feColorMatrix in="SourceAlpha" type="matrix" values="0 0 0 0 0 0 0 0 0 0 0 0 0 0 0 0 0 0 127 0" result="hardAlpha"/>
<feOffset dy="0.5"/>
<feComposite in2="hardAlpha" operator="out"/>
<feColorMatrix type="matrix" values="0 0 0 0 0 0 0 0 0 0 0 0 0 0 0 0 0 0 0.45 0"/>
<feBlend mode="normal" in2="BackgroundImageFix" result="effect1_dropShadow_956_2320"/>
<feBlend mode="normal" in="SourceGraphic" in2="effect1_dropShadow_956_2320" result="shape"/>
</filter>
</defs>
</svg>
