<svg width="24" height="24" viewBox="0 0 24 24" fill="none" xmlns="http://www.w3.org/2000/svg">
<path fill-rule="evenodd" clip-rule="evenodd" d="M12.0409 12.6812L16.8449 17.5154L17.8041 16.5622L13.0667 11.7951L18.153 7.40138L17.269 6.37802L12.1112 10.8335L7.3078 6L6.34859 6.95323L11.0853 11.7197L6.00049 16.1122L6.8845 17.1355L12.0409 12.6812Z" fill="#777777"/>
<path d="M16.8449 17.5154L16.3653 17.992C16.6285 18.2569 17.0567 18.2583 17.3215 17.995L16.8449 17.5154ZM12.0409 12.6812L12.5205 12.2046C12.2702 11.9527 11.8676 11.9374 11.5989 12.1696L12.0409 12.6812ZM17.8041 16.5622L18.2807 17.0418C18.4079 16.9154 18.4797 16.7436 18.4803 16.5643C18.4808 16.385 18.4101 16.2128 18.2837 16.0856L17.8041 16.5622ZM13.0667 11.7951L12.6247 11.2834C12.4828 11.406 12.3982 11.582 12.3911 11.7694C12.3839 11.9568 12.455 12.1387 12.5871 12.2717L13.0667 11.7951ZM18.153 7.40138L18.595 7.91305C18.8776 7.66894 18.9088 7.24196 18.6647 6.95937L18.153 7.40138ZM17.269 6.37802L17.7807 5.93602C17.6635 5.80031 17.4971 5.71673 17.3183 5.70367C17.1394 5.6906 16.9627 5.74912 16.827 5.86635L17.269 6.37802ZM12.1112 10.8335L11.6316 11.3101C11.8819 11.562 12.2844 11.5774 12.5532 11.3452L12.1112 10.8335ZM7.3078 6L7.7874 5.52339C7.52418 5.25851 7.09606 5.25717 6.83119 5.5204L7.3078 6ZM6.34859 6.95323L5.87198 6.47362C5.74478 6.60003 5.673 6.77179 5.67244 6.95111C5.67188 7.13044 5.74258 7.30264 5.86899 7.42984L6.34859 6.95323ZM11.0853 11.7197L11.5273 12.2314C11.6692 12.1088 11.7539 11.9328 11.761 11.7454C11.7681 11.558 11.6971 11.3761 11.5649 11.2431L11.0853 11.7197ZM6.00049 16.1122L5.55848 15.6005C5.27589 15.8446 5.2447 16.2716 5.48881 16.5542L6.00049 16.1122ZM6.8845 17.1355L6.37282 17.5775C6.49005 17.7132 6.65638 17.7968 6.83523 17.8099C7.01408 17.8229 7.1908 17.7644 7.3265 17.6472L6.8845 17.1355ZM17.3245 17.0388L12.5205 12.2046L11.5613 13.1579L16.3653 17.992L17.3245 17.0388ZM17.3275 16.0826L16.3683 17.0358L17.3215 17.995L18.2807 17.0418L17.3275 16.0826ZM12.5871 12.2717L17.3245 17.0388L18.2837 16.0856L13.5463 11.3185L12.5871 12.2717ZM13.5087 12.3068L18.595 7.91305L17.711 6.8897L12.6247 11.2834L13.5087 12.3068ZM18.6647 6.95937L17.7807 5.93602L16.7573 6.82003L17.6413 7.84338L18.6647 6.95937ZM16.827 5.86635L11.6692 10.3218L12.5532 11.3452L17.711 6.8897L16.827 5.86635ZM6.8282 6.47661L11.6316 11.3101L12.5908 10.3569L7.7874 5.52339L6.8282 6.47661ZM6.8252 7.43283L7.78441 6.4796L6.83119 5.5204L5.87198 6.47362L6.8252 7.43283ZM11.5649 11.2431L6.8282 6.47661L5.86899 7.42984L10.6057 12.1963L11.5649 11.2431ZM10.6433 11.208L5.55848 15.6005L6.44249 16.6238L11.5273 12.2314L10.6433 11.208ZM5.48881 16.5542L6.37282 17.5775L7.39617 16.6935L6.51217 15.6702L5.48881 16.5542ZM7.3265 17.6472L12.4829 13.1929L11.5989 12.1696L6.44249 16.6238L7.3265 17.6472Z" fill="#777777"/>
</svg>
