<svg width="40" height="40" viewBox="0 0 40 40" fill="none" xmlns="http://www.w3.org/2000/svg">
<g clip-path="url(#clip0_78_551)">
<path d="M6.28915 0.22665C5.7579 0.53915 0.390712 5.93759 0.164149 6.3829C-0.0311631 6.77353 -0.0624131 7.59384 0.101649 7.99228C0.257899 8.36728 0.601649 8.73446 0.968837 8.92978C1.39852 9.15634 2.32821 9.17196 2.73446 8.95321C2.8829 8.87509 3.52352 8.29696 4.16415 7.67196L5.31259 6.53134V16.9532C5.31259 23.4767 5.34384 27.586 5.39071 27.9298C5.64852 29.7188 6.42977 31.2735 7.67196 32.4688C8.6954 33.4532 9.75009 34.0548 11.1641 34.4376L11.9141 34.6485L22.6876 34.672L33.4688 34.6954L32.2813 35.8829C31.5782 36.5938 31.0548 37.1876 30.9767 37.3673C30.9142 37.5235 30.8595 37.8751 30.8595 38.1563C30.8595 38.797 31.1407 39.3595 31.6251 39.711C31.922 39.9298 32.047 39.961 32.5548 39.9923C33.6173 40.0391 33.461 40.1563 36.6642 36.9688C38.4923 35.1485 39.6251 33.961 39.7735 33.711C39.961 33.3829 40.0001 33.2345 40.0001 32.7813C40.0001 32.3985 39.9532 32.1407 39.8438 31.922C39.7501 31.711 38.6563 30.5704 36.7423 28.6563C33.8517 25.7735 33.7813 25.711 33.336 25.586C32.5392 25.3595 31.8204 25.5704 31.297 26.1876C31.1407 26.3673 30.9767 26.6563 30.9298 26.8282C30.8204 27.2345 30.8829 27.9454 31.0548 28.2891C31.1329 28.4376 31.7032 29.0704 32.336 29.711L33.4767 30.8595L22.8907 30.8438L12.3048 30.8204L11.8438 30.6407C11.211 30.4063 10.7188 30.0704 10.2579 29.586C9.79696 29.0938 9.58602 28.7579 9.35165 28.1563L9.17977 27.6954L9.15634 17.1095L9.14071 6.52353L10.2891 7.67196C11.586 8.96103 11.8673 9.1329 12.6251 9.14071C13.7735 9.14071 14.6251 8.21103 14.5079 7.0704C14.4845 6.84384 14.3985 6.52353 14.3126 6.35946C14.0782 5.91415 8.39852 0.273525 8.03134 0.117275C7.86727 0.0547752 7.5079 8.7738e-05 7.21102 8.7738e-05C6.76571 8.7738e-05 6.61727 0.0391502 6.28915 0.22665Z" fill="white"/>
<path d="M17.5391 0.14852C16.8672 0.46102 16.4844 1.08602 16.4844 1.87508C16.4844 2.43758 16.6328 2.83602 16.9766 3.18758C17.5156 3.75008 16.8672 3.70321 25.3125 3.75008L32.9297 3.78914L33.4453 3.96883C34.6875 4.38289 35.6172 5.32039 36.0391 6.56258C36.2109 7.07039 36.2109 7.10164 36.25 14.6876C36.2891 21.6016 36.3047 22.3282 36.4219 22.5391C36.6016 22.8751 37.0234 23.2501 37.3594 23.3907C37.7578 23.5626 38.5547 23.547 38.9453 23.3673C39.3437 23.1876 39.8125 22.672 39.9219 22.2891C39.9844 22.0782 40 19.7345 39.9844 14.1016L39.9609 6.21102L39.7812 5.63289C38.9531 2.93758 36.9922 0.99227 34.3359 0.218832L33.7109 0.0391445L25.7812 0.0235195C18.1719 8.2016e-05 17.8359 0.00789452 17.5391 0.14852Z" fill="white"/>
<path d="M28.3828 10.3436C27.4219 10.6561 26.7188 11.5233 26.7188 12.3905C26.7188 13.3046 27.9531 13.4139 28.1719 12.5233C28.3984 11.6249 29.4531 11.4374 29.9219 12.2108C30.0937 12.4921 30.1172 12.7421 29.9922 12.9921C29.9453 13.0858 29.1875 13.8827 28.3125 14.7733L26.7188 16.3749V16.7264C26.7188 17.0077 26.7578 17.1249 26.9219 17.2733C27.1172 17.4608 27.1328 17.4608 29.0234 17.4842C30.6484 17.5077 30.9687 17.4921 31.1719 17.3827C31.6094 17.1561 31.6875 16.6014 31.3359 16.2421C31.1094 16.0155 31.1016 16.0155 30.1484 16.0155H29.1875L30.2422 14.9374C31.1953 13.9686 31.3125 13.8202 31.4375 13.4061C31.8047 12.2421 31.2266 10.9452 30.1172 10.4608C29.6406 10.2499 28.8359 10.1952 28.3828 10.3436Z" fill="white"/>
<path d="M14.9453 14.3359C14.8047 14.3984 14.6172 14.5625 14.5312 14.7031C14.3828 14.9531 14.375 15.0859 14.375 18.8984V22.8281L14.6719 23.125C15.0469 23.5 15.4141 23.5859 15.8984 23.4062C16.1328 23.3125 16.2969 23.1797 16.4219 22.9844C16.6016 22.7031 16.6016 22.6406 16.6406 20.0391C16.6719 17.6875 16.6953 17.3594 16.8125 17.1797C17 16.9141 17.5 16.6406 17.8047 16.6406C18.1719 16.6406 18.6328 16.9062 18.8359 17.2422C19.0234 17.5312 19.0234 17.5781 19.0625 20.2109L19.1016 22.875L19.2969 23.0938C19.5234 23.3359 19.9062 23.5156 20.1953 23.5156C20.5078 23.5156 20.9609 23.2422 21.1328 22.9531C21.2812 22.7109 21.2891 22.5156 21.3281 20.0391C21.3594 17.6875 21.3828 17.3594 21.5 17.1797C21.6875 16.9141 22.1875 16.6406 22.4922 16.6406C22.8594 16.6406 23.3203 16.9062 23.5234 17.2422C23.7109 17.5312 23.7109 17.5781 23.75 20.2109L23.7891 22.875L23.9844 23.0938C24.3828 23.5234 24.8906 23.6172 25.3906 23.3594C25.9609 23.0703 25.9766 23.0078 26 20.2812C26.0156 18.9219 25.9922 17.6484 25.9453 17.3672C25.7188 15.9141 24.625 14.7422 23.2188 14.4453C22.3516 14.2656 21.25 14.4922 20.5234 14.9922L20.1719 15.2344L19.7734 14.9688C19.1484 14.5469 18.6719 14.4141 17.7734 14.4141C17.2266 14.4219 16.9062 14.4609 16.7031 14.5469C16.4453 14.6641 16.4062 14.6641 16.3203 14.5625C16.0469 14.2266 15.4219 14.125 14.9453 14.3359Z" fill="white"/>
</g>
<defs>
<clipPath id="clip0_78_551">
<rect width="40" height="40" fill="white"/>
</clipPath>
</defs>
</svg>
