<svg width="40" height="40" viewBox="0 0 40 40" fill="none" xmlns="http://www.w3.org/2000/svg">
<path d="M17.0547 2.02344C16.2422 2.32031 15.6484 2.85938 15.2578 3.66406C15.0859 4.00781 15.0391 4.23438 15.0156 4.8125L14.9844 5.53906L14.2266 5.85156C13.8125 6.03125 13.4453 6.17188 13.4062 6.17188C13.3672 6.17188 13.1641 6.00781 12.9531 5.8125C12.7422 5.61719 12.3359 5.34375 12.0469 5.21094C11.5625 4.97656 11.4609 4.96094 10.7031 4.96094C9.92188 4.96094 9.85156 4.97656 9.33594 5.22656C8.85938 5.46094 8.57031 5.71094 7.14062 7.14062C5.71094 8.57031 5.46094 8.85938 5.22656 9.33594C4.97656 9.85156 4.96094 9.92188 4.96094 10.7031C4.96094 11.4609 4.97656 11.5625 5.21094 12.0469C5.34375 12.3359 5.625 12.75 5.82031 12.9609C6.23438 13.4062 6.24219 13.3047 5.78906 14.3828L5.53906 14.9844L4.82031 15.0156C4.23438 15.0469 4.01562 15.0938 3.63281 15.2734C3.03906 15.5547 2.4375 16.1562 2.14062 16.7578L1.91406 17.2266V20V22.7734L2.14062 23.2422C2.4375 23.8438 3.03906 24.4453 3.63281 24.7266C4.01562 24.9062 4.23438 24.9531 4.82031 24.9844L5.53906 25.0156L5.85156 25.7734C6.03125 26.1875 6.17188 26.5547 6.17188 26.5938C6.17188 26.6328 6.00781 26.8359 5.8125 27.0469C5.61719 27.2578 5.34375 27.6641 5.21094 27.9531C4.97656 28.4375 4.96094 28.5391 4.96094 29.2969C4.96094 30.0781 4.97656 30.1484 5.22656 30.6641C5.46094 31.1406 5.71094 31.4297 7.14062 32.8594C8.57031 34.2891 8.85938 34.5391 9.33594 34.7734C9.85156 35.0234 9.92188 35.0391 10.7031 35.0391C11.4609 35.0391 11.5625 35.0234 12.0469 34.7891C12.3359 34.6562 12.7422 34.3828 12.9531 34.1875C13.1641 33.9922 13.3672 33.8281 13.4062 33.8281C13.4453 33.8281 13.8125 33.9688 14.2266 34.1484L14.9844 34.4609L15.0156 35.1875C15.0391 35.7812 15.0859 35.9844 15.2734 36.375C15.5625 36.9688 16.1641 37.5625 16.7578 37.8594L17.2266 38.0859H20H22.7734L23.2422 37.8594C23.8359 37.5625 24.4375 36.9688 24.7266 36.375C24.9141 35.9844 24.9609 35.7812 24.9844 35.1875L25.0156 34.4609L25.6172 34.2109C26.6953 33.7578 26.5938 33.7656 27.0391 34.1797C27.25 34.375 27.6641 34.6562 27.9531 34.7891C28.4375 35.0234 28.5391 35.0391 29.2969 35.0391C30.0781 35.0391 30.1484 35.0234 30.6641 34.7734C31.1406 34.5391 31.4297 34.2891 32.8594 32.8594C34.2812 31.4375 34.5469 31.1406 34.7656 30.6719C34.9922 30.2188 35.0391 30.0312 35.0625 29.4609C35.1094 28.4375 34.8438 27.7422 34.1172 26.9766C33.7656 26.6094 33.7656 26.6953 34.2109 25.6172L34.4609 25.0156L35.1875 24.9844C35.7812 24.9609 35.9844 24.9141 36.375 24.7266C36.9688 24.4375 37.5625 23.8359 37.8594 23.2422L38.0859 22.7734V20V17.2266L37.8594 16.7578C37.5625 16.1641 36.9688 15.5625 36.375 15.2734C35.9844 15.0859 35.7812 15.0391 35.1875 15.0156L34.4609 14.9844L34.2109 14.3828C33.7578 13.3047 33.7656 13.4062 34.1797 12.9609C34.375 12.75 34.6562 12.3359 34.7891 12.0469C35.0234 11.5625 35.0391 11.4609 35.0391 10.7031C35.0391 9.92188 35.0234 9.85156 34.7734 9.33594C34.5391 8.85938 34.2891 8.57031 32.8594 7.14062C31.4297 5.71094 31.1406 5.46094 30.6641 5.22656C30.1484 4.97656 30.0781 4.96094 29.2969 4.96094C28.5391 4.96094 28.4375 4.97656 27.9531 5.21094C27.6641 5.34375 27.2578 5.61719 27.0469 5.8125C26.8359 6.00781 26.6406 6.17188 26.6094 6.17188C26.5781 6.17188 26.2109 6.03125 25.7891 5.85156L25.0156 5.53125L24.9844 4.8125C24.9609 4.21875 24.9141 4.01562 24.7266 3.625C24.4375 3.03125 23.8359 2.4375 23.2422 2.14062L22.7734 1.91406L20.1172 1.89844C17.6797 1.875 17.4297 1.89062 17.0547 2.02344ZM22.0312 4.46094C22.4219 4.60156 22.5 4.88281 22.5 6.1875V7.30469L24.7422 8.23438C25.9766 8.74219 27.0469 9.17969 27.125 9.20312C27.2344 9.22656 27.5078 9.00781 28.1562 8.36719C28.8672 7.66406 29.0781 7.5 29.2656 7.5C29.4531 7.5 29.7344 7.74219 30.9922 9C32.2578 10.2656 32.5 10.5391 32.5 10.7344C32.5 10.9219 32.3359 11.125 31.6328 11.8438C30.9922 12.4922 30.7734 12.7656 30.7969 12.875C30.8203 12.9531 31.2578 14.0234 31.7656 15.2578L32.6953 17.5H33.7969C35.0859 17.5 35.3594 17.5703 35.5156 17.9375C35.6562 18.2734 35.6719 21.6406 35.5391 22.0312C35.3984 22.4219 35.1172 22.5 33.8125 22.5H32.6875L31.7656 24.7344C31.2578 25.9688 30.8203 27.0391 30.7969 27.125C30.7734 27.2344 30.9766 27.5 31.6328 28.1562C32.3359 28.8672 32.5 29.0781 32.5 29.2656C32.5 29.4531 32.2578 29.7344 31 30.9922C29.7344 32.2578 29.4609 32.5 29.2656 32.5C29.0781 32.5 28.875 32.3359 28.1562 31.6328C27.5078 30.9922 27.2344 30.7734 27.125 30.7969C27.0469 30.8203 25.9766 31.2578 24.7422 31.7656L22.5 32.6953V33.7969C22.5 35.0859 22.4297 35.3594 22.0625 35.5156C21.6875 35.6719 18.3125 35.6719 17.9375 35.5156C17.5703 35.3594 17.5 35.0859 17.5 33.7969V32.6875L15.2734 31.7656C14.0469 31.2578 12.9688 30.8281 12.8828 30.8047C12.7578 30.7734 12.5312 30.9531 11.8438 31.6328C11.125 32.3359 10.9219 32.5 10.7344 32.5C10.5391 32.5 10.2656 32.2578 9 30.9922C7.74219 29.7344 7.5 29.4531 7.5 29.2656C7.5 29.0781 7.66406 28.8672 8.36719 28.1562C9.02344 27.5 9.22656 27.2344 9.20312 27.125C9.17969 27.0391 8.74219 25.9688 8.23438 24.7344L7.3125 22.5H6.1875C4.88281 22.5 4.60156 22.4219 4.46094 22.0312C4.34375 21.6797 4.34375 18.3203 4.46094 17.9688C4.60156 17.5781 4.88281 17.5 6.1875 17.5H7.3125L8.23438 15.2656C8.74219 14.0312 9.17969 12.9609 9.20312 12.875C9.22656 12.7656 9.02344 12.5 8.36719 11.8438C7.66406 11.1328 7.5 10.9219 7.5 10.7344C7.5 10.5469 7.74219 10.2656 9 9.00781C10.2656 7.74219 10.5391 7.5 10.7344 7.5C10.9219 7.5 11.125 7.66406 11.8438 8.36719C12.5 9.02344 12.7656 9.22656 12.875 9.20312C12.9609 9.17969 14.0312 8.74219 15.2656 8.23438L17.5 7.3125V6.20312C17.5 4.92969 17.5703 4.64062 17.9219 4.48438C18.2344 4.35156 21.6406 4.32812 22.0312 4.46094Z" fill="white"/>
<path d="M18.2812 12.0234C16.6797 12.375 15.4453 13.0547 14.25 14.25C13.0312 15.4688 12.3594 16.7031 12.0156 18.3594C11.7891 19.4375 11.8516 21.2266 12.1406 22.2109C12.5703 23.6641 13.2578 24.8047 14.3125 25.8281C15.3437 26.8359 16.3828 27.4375 17.7891 27.8594C18.7734 28.1484 20.5625 28.2109 21.6406 27.9844C23.2969 27.6406 24.5312 26.9688 25.75 25.75C26.9687 24.5313 27.6406 23.2969 27.9844 21.6406C28.2109 20.5625 28.1484 18.7734 27.8594 17.7891C27.4375 16.3828 26.8359 15.3438 25.8281 14.3125C24.8047 13.2578 23.6641 12.5781 22.2109 12.1406C21.2656 11.8594 19.2969 11.7969 18.2812 12.0234ZM21.125 14.5391C22.5469 14.8125 24.0469 15.8906 24.7969 17.1797C25.2812 18.0078 25.4844 18.7344 25.5312 19.7422C25.6016 21.3984 25.0937 22.7266 23.9531 23.8672C23.6016 24.2188 23.0937 24.6406 22.8203 24.7969C19.625 26.6484 15.6094 24.9922 14.6094 21.3984C14.4219 20.6953 14.3984 19.4922 14.5703 18.7656C15.2656 15.8203 18.1484 13.9609 21.125 14.5391Z" fill="white"/>
</svg>
