<svg width="40" height="40" viewBox="0 0 40 40" fill="none" xmlns="http://www.w3.org/2000/svg">
<path d="M11.5312 4.92188C7.10938 6.11719 3.39844 7.14062 3.29688 7.20312C3.1875 7.25781 3.00781 7.44531 2.89844 7.60938L2.69531 7.92188L2.67188 21.3047L2.65625 34.6875H1.32812H0V35.9766V37.2656H20H40V35.9766V34.6875H30.6641H21.3281V24.2188V13.75H28.0078H34.6875V20.8203V27.8906H36.0156H37.3438V20.0547C37.3438 12.6016 37.3359 12.2109 37.1953 11.9062C37.0312 11.5391 36.75 11.2969 36.3516 11.1641C36.1406 11.0938 34.0625 11.0859 27.8984 11.1094C20.2188 11.1406 19.7109 11.1484 19.4297 11.2812C19.2734 11.3594 19.0625 11.5391 18.9609 11.6719L18.7891 11.9141L18.7656 23.3047L18.75 34.6875H12.0312H5.3125L5.32812 22.0156L5.35156 9.34375L11.9531 7.5625C15.5859 6.58594 18.6016 5.78125 18.6562 5.78125C18.7266 5.78125 18.75 6.125 18.75 7.22656V8.67188H20.0391H21.3281V6.16406C21.3281 3.39062 21.3203 3.32031 20.8359 2.96094C20.6406 2.82031 20.4766 2.77344 20.0781 2.75781C19.6328 2.74219 18.6406 2.99219 11.5312 4.92188Z" fill="white"/>
<path d="M8.90625 12.5V13.8281H11.9922H15.0781V12.5V11.1719H11.9922H8.90625V12.5Z" fill="white"/>
<path d="M8.90625 18.3594V19.6875H11.9922H15.0781V18.3594V17.0312H11.9922H8.90625V18.3594Z" fill="white"/>
<path d="M24.9219 18.3594V19.6875H28.0078H31.0938V18.3594V17.0312H28.0078H24.9219V18.3594Z" fill="white"/>
<path d="M8.90625 24.1406V25.4688H11.9922H15.0781V24.1406V22.8125H11.9922H8.90625V24.1406Z" fill="white"/>
<path d="M24.9219 24.1406V25.4688H28.0078H31.0938V24.1406V22.8125H28.0078H24.9219V24.1406Z" fill="white"/>
<path d="M8.90625 30V31.3281H11.9922H15.0781V30V28.6719H11.9922H8.90625V30Z" fill="white"/>
<path d="M24.9219 30V31.3281H28.0078H31.0938V30V28.6719H28.0078H24.9219V30Z" fill="white"/>
<path d="M34.6875 31.3672V32.5781H36.0156H37.3438V31.3672V30.1562H36.0156H34.6875V31.3672Z" fill="white"/>
</svg>
