<svg width="40" height="40" viewBox="0 0 40 40" fill="none" xmlns="http://www.w3.org/2000/svg">
<path d="M18.1248 3.00781C13.3201 3.66406 9.16385 6.84375 7.30447 11.2891C6.59353 12.9766 6.32791 14.2266 6.27322 16.0703C6.22635 17.5859 6.29666 18.2656 6.64822 19.4922C7.67947 23.1797 10.4685 27.5547 14.9529 32.5391C16.1951 33.9219 19.0935 36.8047 19.3904 36.9609C19.7576 37.1484 20.2342 37.1484 20.6092 36.9609C20.9763 36.7734 24.2263 33.4766 25.6638 31.8359C30.4217 26.4062 33.1248 21.7422 33.6717 18.0391C33.8123 17.0781 33.7342 14.9531 33.5232 13.9453C32.5076 9.20312 29.3748 5.50781 24.906 3.78125C22.8904 3 20.3201 2.71094 18.1248 3.00781ZM22.3045 5.69531C23.3592 5.9375 24.1404 6.21875 25.0467 6.67969C26.1326 7.23438 26.9842 7.85156 27.8826 8.75C28.7967 9.65625 29.492 10.6172 30.0467 11.7578C30.8123 13.3359 31.0857 14.4297 31.1482 16.1797C31.1951 17.5625 31.1092 18.1641 30.656 19.5156C29.5076 22.9844 25.9451 27.9922 21.2342 32.7734L19.9998 34.0234L18.7654 32.7734C14.0545 27.9922 10.492 22.9766 9.34353 19.5156C8.9451 18.3359 8.82791 17.6406 8.82791 16.5469C8.82791 11.0469 12.8904 6.42969 18.492 5.54688C19.2654 5.42969 21.5076 5.51562 22.3045 5.69531Z" fill="white"/>
<path d="M18.9449 9.60937C15.9761 10.0781 13.5699 12.3828 13.0152 15.3047C12.398 18.5625 14.0933 21.8437 17.0933 23.1797C18.8277 23.9453 21.1715 23.9453 22.9058 23.1797C25.359 22.0859 26.9605 19.7109 27.0855 16.9922C27.1793 14.9531 26.523 13.1875 25.1246 11.7344C24.2418 10.8047 22.9996 10.0859 21.7574 9.76562C21.0308 9.57812 19.6402 9.5 18.9449 9.60937ZM20.898 12.2266C22.984 12.6641 24.523 14.5547 24.5308 16.6797C24.5308 18.6797 23.0855 20.5312 21.1246 21.0547C20.5308 21.2109 19.4683 21.2109 18.8746 21.0547C16.5074 20.4297 15.0308 17.9922 15.5855 15.6328C15.9761 14 17.4136 12.5859 19.0621 12.2344C19.7261 12.0859 20.2261 12.0859 20.898 12.2266Z" fill="white"/>
</svg>
