<svg width="40" height="40" viewBox="0 0 40 40" fill="none" xmlns="http://www.w3.org/2000/svg">
<path d="M8.63281 2.39844C6.97656 2.57031 4.9375 3.04688 3.29688 3.64062C2.01562 4.10156 0.484375 4.83594 0.234375 5.10938L0.0390625 5.32812V20V34.6719L0.234375 34.8828C0.734375 35.4141 1.25 35.4453 2.17188 35C5.72656 33.2812 9.53125 32.6484 13.1172 33.1641C15.1641 33.4688 16.9141 34.0312 19.5 35.2344C22.1016 36.4453 23.9141 37.0391 26.2422 37.4375C27.0859 37.5859 27.5391 37.6094 29.3359 37.6172C31.6016 37.6172 32.3828 37.5391 34.0625 37.1406C36.3047 36.6172 39.2344 35.4531 39.7656 34.8828L39.9609 34.6719V20V5.32812L39.7656 5.11719C39.2656 4.58594 38.75 4.55469 37.8281 5C34.7344 6.49219 31.25 7.21094 28.2188 6.96875C25.5469 6.75781 23.6328 6.21875 20.5859 4.79688C18.3047 3.74219 17.3359 3.38281 15.5781 2.9375C13.9141 2.51562 12.9922 2.40625 10.8984 2.38281C9.82812 2.36719 8.80469 2.375 8.63281 2.39844ZM12.3594 4.83594C12.6094 4.86719 12.8281 4.91406 12.8516 4.9375C12.875 4.96094 12.9297 5.4375 12.9688 5.98438C13.3203 10.8047 14.7266 13.6484 17.7344 15.6406C18.2266 15.9688 19.4922 16.6875 20.5469 17.2266C24.4297 19.2422 25.9766 20.3672 26.9922 21.9375C27.4453 22.6406 27.7344 23.2891 28.3203 24.8438C29.4062 27.7734 30.0547 28.7344 31.6328 29.7734C33.2422 30.8359 35.0938 31.6094 36.6016 31.8516C37.0312 31.9219 37.4297 31.9844 37.4844 32C37.5547 32.0234 37.5781 32.2031 37.5625 32.7109L37.5391 33.3906L36.8359 33.6875C35.1953 34.375 33.3125 34.8828 31.4844 35.125C30.1875 35.2891 27.8594 35.2422 26.5234 35.0078C24.5547 34.6719 22.9141 34.1328 20.6719 33.0703C19.8984 32.7109 18.8906 32.2656 18.4219 32.0859C17.7734 31.8359 17.5781 31.7266 17.5781 31.6172C17.5781 31.3672 17.2812 29.9844 17.0703 29.25C16.2656 26.4375 14.8281 24.0938 12.8984 22.4453C10.2656 20.1953 6.4375 18.7578 3.0625 18.75H2.42188L2.4375 12.6797L2.46094 6.60156L3.49219 6.19531C5.14062 5.53125 6.70312 5.11719 8.39844 4.89062C9.23438 4.77344 11.625 4.74219 12.3594 4.83594ZM16.25 5.67188C17.2422 5.98438 17.9141 6.26562 19.6484 7.0625C23.4141 8.82031 25.9375 9.41406 29.4922 9.40625C31.5 9.39844 32.7031 9.25781 34.4141 8.82812C35.1953 8.63281 36.9062 8.07812 37.4453 7.85156C37.5703 7.79688 37.5781 8.34375 37.5781 18.6641V29.5312H37.3984C37.2969 29.5312 36.9219 29.4609 36.5703 29.3672C35 28.9688 33.1875 28.0312 32.2969 27.1484C31.6406 26.5 31.2734 25.7969 30.5547 23.8516C29.9531 22.2031 29.5625 21.3906 28.9531 20.4688C28.1641 19.2891 27.0859 18.2734 25.4688 17.1875C24.5234 16.5625 23.9688 16.2422 21.7969 15.1172C18.8594 13.6016 17.7891 12.8047 16.9766 11.5469C16.2188 10.3828 15.6953 8.67188 15.4688 6.67969C15.3594 5.71875 15.3672 5.39062 15.4922 5.42969C15.5391 5.44531 15.8828 5.55469 16.25 5.67188ZM5.1875 21.4062C7.63281 21.8828 10.1094 23.1328 11.7422 24.7188C13.2812 26.2109 14.375 28.2891 14.9531 30.8125C15.0078 31.0234 15 31.0312 14.7891 30.9844C13.9766 30.8047 12.3438 30.6172 11.25 30.5781C8.57812 30.4766 5.75 30.9453 3.17969 31.9219C2.79688 32.0703 2.46875 32.1875 2.45312 32.1875C2.4375 32.1875 2.42188 29.7031 2.42188 26.6641V21.1484L3.38281 21.1953C3.90625 21.2266 4.71875 21.3203 5.1875 21.4062Z" fill="white"/>
<path d="M31.875 12.9611C31.2969 13.1408 30.961 13.4376 30.711 13.9845C30.3125 14.8673 30.7188 15.9376 31.6016 16.3361C32.3829 16.6954 33.4141 16.3908 33.8594 15.672C34.1563 15.1954 34.2266 14.5314 34.0235 14.0236C33.7266 13.2267 32.6875 12.7189 31.875 12.9611Z" fill="white"/>
</svg>
