<svg width="40" height="40" viewBox="0 0 40 40" fill="none" xmlns="http://www.w3.org/2000/svg">
<path d="M10.6328 1.47656C9.69531 1.82812 9.00781 2.45312 8.57812 3.35156C8.36719 3.78906 8.32031 3.97656 8.29688 4.60156C8.25 5.53125 8.35938 6.01562 8.75781 6.67188L9.07031 7.19531L6.58594 11.7812L4.10156 16.3672L3.39844 16.4219C2.32812 16.5 1.67969 16.7812 0.992188 17.4766C0.78125 17.6875 0.492188 18.1016 0.328125 18.4297C0.046875 19.0078 0.0390625 19.0312 0.0390625 19.9609C0.0390625 20.8906 0.046875 20.9141 0.328125 21.4922C0.953125 22.7656 2.15625 23.5156 3.55469 23.5156H4.03125L6.55469 28.1641L9.07031 32.8047L8.75781 33.3281C8.35938 33.9844 8.25 34.4688 8.29688 35.3984C8.32812 36.0312 8.36719 36.2109 8.59375 36.6797C8.9375 37.3906 9.55469 38.0156 10.2734 38.3672C10.8047 38.625 10.8438 38.6328 11.7969 38.6328C12.7422 38.6328 12.7891 38.625 13.2891 38.3828C13.9766 38.0469 14.5 37.5625 14.875 36.9219L15.1797 36.4062H20.0312L24.8828 36.4141L25.0703 36.8203C25.3438 37.3906 26.0156 38.0391 26.6797 38.3672C27.2109 38.625 27.25 38.6328 28.2031 38.6328C29.1562 38.6328 29.1953 38.625 29.7266 38.3672C30.4453 38.0156 31.0625 37.3906 31.4062 36.6797C31.6328 36.2109 31.6719 36.0312 31.7031 35.3984C31.75 34.4688 31.6406 33.9844 31.2422 33.3281L30.9297 32.8047L33.4453 28.1641L35.9688 23.5156H36.4453C37.8438 23.5156 39.0469 22.7656 39.6719 21.4922C39.9531 20.9141 39.9609 20.8906 39.9609 19.9609C39.9609 19.0312 39.9531 19.0078 39.6719 18.4297C39.5078 18.1016 39.2188 17.6875 39.0078 17.4766C38.3203 16.7812 37.6719 16.5 36.6016 16.4219L35.9062 16.3672L33.4141 11.7812L30.9297 7.19531L31.2422 6.67188C31.6406 6.01562 31.75 5.53125 31.7031 4.60156C31.6719 3.96875 31.6328 3.78906 31.4062 3.32031C31.0625 2.60938 30.4453 1.98438 29.7266 1.63281C29.1953 1.375 29.1562 1.36719 28.2031 1.36719C27.25 1.36719 27.2109 1.375 26.6797 1.63281C26.0156 1.96094 25.3438 2.60938 25.0703 3.17969L24.8828 3.58594L20.0312 3.59375H15.1797L14.875 3.07812C14.5 2.4375 13.9766 1.95312 13.2891 1.625C12.8203 1.39844 12.6953 1.36719 11.9141 1.35156C11.2109 1.32812 10.9766 1.35156 10.6328 1.47656ZM12.375 3.89844C12.7109 4.125 12.8906 4.44531 12.8906 4.84375C12.8906 5.46875 12.4219 5.9375 11.7969 5.9375C11.1719 5.9375 10.7031 5.46875 10.7031 4.84375C10.7031 4.21875 11.1719 3.75 11.7969 3.75C12.0078 3.75 12.2344 3.8125 12.375 3.89844ZM28.7812 3.89844C29.1172 4.125 29.2969 4.44531 29.2969 4.84375C29.2969 5.24219 29.1172 5.5625 28.7812 5.78906C28.3047 6.10156 27.5938 5.92969 27.2578 5.42188C26.9453 4.94531 27.1172 4.23438 27.625 3.89844C27.7656 3.8125 27.9922 3.75 28.2031 3.75C28.4141 3.75 28.6406 3.8125 28.7812 3.89844ZM25.0469 6.46094C25.3438 7.08594 26.0078 7.72656 26.6797 8.04688C27.1641 8.28125 27.3125 8.32031 28.0078 8.34375L28.7891 8.375L31.2969 13L33.8047 17.6172L33.625 17.8516C33.5234 17.9844 33.3438 18.3047 33.2266 18.5547C33.0234 18.9844 33.0078 19.1016 33.0078 19.9609C33.0078 20.8203 33.0234 20.9375 33.2266 21.3672C33.3438 21.6172 33.5312 21.9453 33.6406 22.0859L33.8281 22.3359L31.3125 26.9766L28.7891 31.625L28.0078 31.6562C27.3125 31.6797 27.1641 31.7188 26.6797 31.9531C26.0078 32.2734 25.3438 32.9141 25.0469 33.5391L24.8281 33.9844H20H15.1719L14.9531 33.5391C14.6562 32.9141 13.9922 32.2734 13.3203 31.9531C12.8359 31.7188 12.6875 31.6797 11.9922 31.6562L11.2109 31.625L8.6875 26.9766L6.17188 22.3359L6.36719 22.0859C6.46875 21.9453 6.65625 21.6172 6.77344 21.3672C6.97656 20.9375 6.99219 20.8203 6.99219 19.9609C6.99219 19.1016 6.97656 18.9844 6.77344 18.5547C6.65625 18.3047 6.47656 17.9844 6.375 17.8516L6.19531 17.6172L8.70312 13L11.2109 8.375L11.9922 8.34375C12.6875 8.32031 12.8359 8.28125 13.3203 8.04688C13.9922 7.72656 14.6562 7.08594 14.9531 6.46094L15.1719 6.01562H20H24.8281L25.0469 6.46094ZM4.10938 19.0234C4.60156 19.3438 4.75781 20.0703 4.42969 20.5547C3.8125 21.4766 2.42188 21.0625 2.42188 19.9531C2.42188 19.1016 3.40625 18.5625 4.10938 19.0234ZM37.0781 19.0234C37.5703 19.3438 37.7266 20.0703 37.3984 20.5547C36.7812 21.4766 35.3906 21.0625 35.3906 19.9531C35.3906 19.1016 36.375 18.5625 37.0781 19.0234ZM12.375 34.2109C12.7109 34.4375 12.8906 34.7578 12.8906 35.1562C12.8906 35.7812 12.4219 36.25 11.7969 36.25C11.1719 36.25 10.7031 35.7812 10.7031 35.1562C10.7031 34.5312 11.1719 34.0625 11.7969 34.0625C12.0078 34.0625 12.2344 34.125 12.375 34.2109ZM28.7812 34.2109C29.1172 34.4375 29.2969 34.7578 29.2969 35.1562C29.2969 35.7812 28.8281 36.25 28.2031 36.25C27.5781 36.25 27.1094 35.7812 27.1094 35.1562C27.1094 34.5312 27.5781 34.0625 28.2031 34.0625C28.4141 34.0625 28.6406 34.125 28.7812 34.2109Z" fill="white"/>
<path d="M17.4609 10.4299C14.3984 10.8674 12.2734 11.8595 11.5234 13.2111L11.2891 13.633V20.0002V26.3674L11.4688 26.7111C12.1875 28.0549 14.0547 29.0002 16.9531 29.5002C17.9688 29.672 20.875 29.7345 22.0781 29.6095C25.375 29.2736 27.7266 28.2189 28.5312 26.7111L28.7109 26.3674V20.0002V13.633L28.5312 13.297C27.8359 11.9924 26.0391 11.047 23.2812 10.5392C22.0938 10.3283 18.6719 10.258 17.4609 10.4299ZM22.8359 12.922C24.2891 13.1955 25.5312 13.6564 26.0781 14.1174C26.3984 14.383 26.3672 14.4924 25.875 14.8205C23.7891 16.2424 18.4297 16.5236 15.2656 15.383C14.5469 15.1174 13.6719 14.5861 13.6719 14.4064C13.6719 14.3439 13.8203 14.1877 14.0078 14.0549C14.8047 13.4689 16.1016 13.0705 18.1641 12.7814C18.7734 12.6955 22.1719 12.797 22.8359 12.922ZM15.1953 17.9064C16.7344 18.3517 17.7188 18.4689 19.9219 18.4689C21.4688 18.4767 22.1172 18.4455 22.8125 18.3361C23.9375 18.1564 25.0781 17.8752 25.8281 17.5861L26.4062 17.3595V18.5939V19.8283L26.0469 20.1408C25.3828 20.7345 23.8359 21.2267 21.9922 21.4455C18.7109 21.8283 14.9531 21.1799 13.8047 20.0392L13.5938 19.8205V18.5861V17.3439L14.0078 17.5158C14.2266 17.6017 14.7656 17.7814 15.1953 17.9064ZM15.4766 23.4455C16.9219 23.8283 17.9609 23.9377 20 23.9377C22.4844 23.9377 24.2031 23.672 25.8828 23.0236L26.4062 22.8205V24.1955V25.5705L26.1328 25.8283C25.6094 26.3205 24.375 26.7892 22.7891 27.0861C21.75 27.2814 18.25 27.2814 17.2109 27.0861C15.625 26.7892 14.3906 26.3205 13.8672 25.8283L13.5938 25.5705V24.1955V22.8205L14.125 23.0236C14.4141 23.133 15.0234 23.3283 15.4766 23.4455Z" fill="white"/>
</svg>
