<svg width="19" height="20" viewBox="0 0 19 20" fill="none" xmlns="http://www.w3.org/2000/svg">
<path opacity="0.8" fill-rule="evenodd" clip-rule="evenodd" d="M19.0004 9.99995C19.0004 15.0167 14.9335 19.0836 9.9167 19.0836C4.89992 19.0836 0.833008 15.0167 0.833008 9.99995C0.833008 4.98317 4.89992 0.91626 9.9167 0.91626C14.9335 0.91626 19.0004 4.98317 19.0004 9.99995ZM9.91691 5.45825C9.30898 5.45825 8.83394 5.98316 8.89444 6.58808L9.29269 10.5706C9.32476 10.8913 9.59462 11.1356 9.91691 11.1356C10.2392 11.1356 10.5091 10.8913 10.5411 10.5706L10.9394 6.58808C10.9999 5.98316 10.5249 5.45825 9.91691 5.45825ZM9.91866 12.271C9.29157 12.271 8.7832 12.7794 8.7832 13.4065C8.7832 14.0336 9.29157 14.5419 9.91866 14.5419C10.5458 14.5419 11.0541 14.0336 11.0541 13.4065C11.0541 12.7794 10.5458 12.271 9.91866 12.271Z" fill="url(#paint0_linear_956_2410)"/>
<defs>
<linearGradient id="paint0_linear_956_2410" x1="19.0004" y1="0.91626" x2="0.833019" y2="19.0836" gradientUnits="userSpaceOnUse">
<stop stop-color="#FFC656"/>
<stop offset="1" stop-color="#F16063"/>
</linearGradient>
</defs>
</svg>
