<svg width="21" height="21" viewBox="0 0 21 21" fill="none" xmlns="http://www.w3.org/2000/svg">
<path d="M11.772 2.29976L13.3799 5.49359C13.5991 5.93818 14.1838 6.36463 14.6772 6.44629L17.5915 6.92718C19.4552 7.23567 19.8937 8.57853 18.5508 9.90325L16.2851 12.1534C15.9014 12.5345 15.6913 13.2695 15.81 13.7957L16.4587 16.5812C16.9703 18.7861 15.7917 19.639 13.8275 18.4867L11.0959 16.8807C10.6026 16.5903 9.78951 16.5903 9.28704 16.8807L6.55543 18.4867C4.60036 19.639 3.41271 18.777 3.92431 16.5812L4.57296 13.7957C4.69172 13.2695 4.4816 12.5345 4.09789 12.1534L1.83221 9.90325C0.49838 8.57853 0.927764 7.23567 2.79147 6.92718L5.7058 6.44629C6.19 6.36463 6.77469 5.93818 6.99395 5.49359L8.60186 2.29976C9.47889 0.566746 10.9041 0.566746 11.772 2.29976Z" stroke="#8DA0C1" stroke-width="2" stroke-linecap="round" stroke-linejoin="round"/>
</svg>
