<svg width="20" height="20" viewBox="0 0 20 20" fill="none" xmlns="http://www.w3.org/2000/svg">
<g clip-path="url(#clip0_73_766)">
<path d="M8.93312 0.0625C5.8628 0.539062 3.49171 2.92969 3.02686 6.00781C2.94874 6.50781 2.95265 7.55078 3.02686 8.08203C3.19483 9.21875 3.57374 10.3555 4.25733 11.7383C5.02687 13.3008 5.81983 14.5508 7.92921 17.5195C8.41749 18.207 8.9839 19.0156 9.19093 19.3164C9.40187 19.625 9.61671 19.8945 9.68312 19.9336C9.83155 20.0234 10.1675 20.0234 10.3159 19.9336C10.3823 19.8945 10.5972 19.625 10.8081 19.3164C11.0151 19.0156 11.5816 18.207 12.0698 17.5195C14.1792 14.5508 14.9722 13.3008 15.7417 11.7383C16.4253 10.3516 16.8003 9.23438 16.9683 8.08203C17.0464 7.54688 17.0503 6.51172 16.9722 6C16.5073 2.90625 14.1206 0.523438 11.023 0.0585938C10.5503 -0.015625 9.40187 -0.0117188 8.93312 0.0625ZM10.898 1.26953C13.2573 1.62109 15.1909 3.46484 15.7222 5.85938C15.7612 6.04297 15.7964 6.41797 15.8081 6.85547C15.8237 7.45703 15.8159 7.62891 15.7456 8.04688C15.5308 9.31641 14.9683 10.7305 14.0151 12.3828C13.3394 13.5586 12.5464 14.7461 10.8237 17.168C10.4097 17.7461 10.0542 18.25 10.0347 18.2812C10.0034 18.332 9.99562 18.332 9.96437 18.2812C9.94483 18.25 9.58937 17.7461 9.1753 17.168C7.45265 14.7461 6.65968 13.5586 5.9839 12.3828C5.03077 10.7305 4.46827 9.31641 4.25343 8.04688C4.18312 7.62891 4.1753 7.45703 4.19093 6.85547C4.20265 6.41797 4.2378 6.04297 4.27687 5.85938C4.66749 4.09766 5.82374 2.60547 7.40187 1.81641C8.51515 1.26172 9.65577 1.08594 10.898 1.26953Z" fill="#777777"/>
<path d="M9.11328 3.61328C7.86719 3.93359 6.89453 4.91406 6.57812 6.16016C6.44531 6.6875 6.44531 7.375 6.57812 7.90234C6.89844 9.15625 7.875 10.1328 9.12891 10.4531C9.65625 10.5859 10.3437 10.5859 10.8711 10.4531C12.125 10.1328 13.1016 9.15625 13.4219 7.90234C13.5547 7.375 13.5547 6.6875 13.4219 6.16016C13.1016 4.90234 12.1289 3.92969 10.8711 3.60938C10.3477 3.47656 9.63281 3.48047 9.11328 3.61328ZM10.6836 4.82422C11.4258 5.05078 12.043 5.69922 12.2461 6.46484C12.3203 6.76172 12.3203 7.30078 12.2461 7.59766C12.1016 8.14453 11.7227 8.66406 11.2383 8.98438C10.6758 9.35156 9.92187 9.44922 9.28906 9.23047C8.87891 9.08984 8.58203 8.89062 8.28906 8.57031C7.88281 8.12891 7.69531 7.63672 7.69531 7.00781C7.69531 5.6875 8.84375 4.625 10.1758 4.71875C10.2852 4.72656 10.5117 4.77344 10.6836 4.82422Z" fill="#777777"/>
</g>
<defs>
<clipPath id="clip0_73_766">
<rect width="20" height="20" fill="white"/>
</clipPath>
</defs>
</svg>
