<svg width="38" height="38" viewBox="0 0 38 38" fill="none" xmlns="http://www.w3.org/2000/svg">
<g opacity="0.5">
<path d="M13.5998 37H24.3998C33.3998 37 36.9998 33.4 36.9998 24.4V13.6C36.9998 4.6 33.3998 1 24.3998 1H13.5998C4.59976 1 0.999756 4.6 0.999756 13.6V24.4C0.999756 33.4 4.59976 37 13.5998 37Z" stroke="#A6B7D4" stroke-width="1.5" stroke-linecap="round" stroke-linejoin="round"/>
<path d="M13.5995 15.3997C15.5877 15.3997 17.1995 13.7879 17.1995 11.7997C17.1995 9.81148 15.5877 8.19971 13.5995 8.19971C11.6113 8.19971 9.99951 9.81148 9.99951 11.7997C9.99951 13.7879 11.6113 15.3997 13.5995 15.3997Z" stroke="#A6B7D4" stroke-width="1.5" stroke-linecap="round" stroke-linejoin="round"/>
<path d="M2.20508 31.5101L11.0791 25.5521C12.5011 24.5981 14.5531 24.7061 15.8311 25.8041L16.4251 26.3261C17.8291 27.5321 20.0971 27.5321 21.5011 26.3261L28.9891 19.9001C30.3931 18.6941 32.6611 18.6941 34.0651 19.9001L36.9991 22.4201" stroke="#A6B7D4" stroke-width="1.5" stroke-linecap="round" stroke-linejoin="round"/>
</g>
</svg>
