<svg width="16" height="16" viewBox="0 0 16 16" fill="none" xmlns="http://www.w3.org/2000/svg">
<g clip-path="url(#clip0_26_685)">
<path d="M7.14699 0.0501966C4.69074 0.431446 2.79387 2.34395 2.42199 4.80645C2.35949 5.20645 2.36262 6.04082 2.42199 6.46582C2.55637 7.3752 2.85949 8.28457 3.40637 9.39082C4.02199 10.6408 4.65637 11.6408 6.34387 14.0158C6.73449 14.5658 7.18762 15.2127 7.35324 15.4533C7.52199 15.7002 7.69387 15.9158 7.74699 15.9471C7.86574 16.0189 8.13449 16.0189 8.25324 15.9471C8.30637 15.9158 8.47824 15.7002 8.64699 15.4533C8.81262 15.2127 9.26574 14.5658 9.65637 14.0158C11.3439 11.6408 11.9782 10.6408 12.5939 9.39082C13.1407 8.28145 13.4407 7.3877 13.5751 6.46582C13.6376 6.0377 13.6407 5.20957 13.5782 4.8002C13.2064 2.3252 11.297 0.418946 8.81887 0.0470715C8.44074 -0.0123043 7.52199 -0.00917816 7.14699 0.0501966ZM8.71887 1.01582C10.6064 1.29707 12.1532 2.77207 12.5782 4.6877C12.6095 4.83457 12.6376 5.13457 12.647 5.48457C12.6595 5.96582 12.6532 6.10332 12.597 6.4377C12.4251 7.45332 11.9751 8.58457 11.2126 9.90645C10.672 10.8471 10.0376 11.7971 8.65949 13.7346C8.32824 14.1971 8.04387 14.6002 8.02824 14.6252C8.00324 14.6658 7.99699 14.6658 7.97199 14.6252C7.95637 14.6002 7.67199 14.1971 7.34074 13.7346C5.96262 11.7971 5.32824 10.8471 4.78762 9.90645C4.02512 8.58457 3.57512 7.45332 3.40324 6.4377C3.34699 6.10332 3.34074 5.96582 3.35324 5.48457C3.36262 5.13457 3.39074 4.83457 3.42199 4.6877C3.73449 3.27832 4.65949 2.08457 5.92199 1.45332C6.81262 1.00957 7.72512 0.868946 8.71887 1.01582Z" fill="#999999"/>
<path d="M7.2908 2.89082C6.29392 3.14707 5.5158 3.93145 5.26267 4.92832C5.15642 5.3502 5.15642 5.9002 5.26267 6.32207C5.51892 7.3252 6.30017 8.10645 7.3033 8.3627C7.72517 8.46895 8.27517 8.46895 8.69705 8.3627C9.70017 8.10645 10.4814 7.3252 10.7377 6.32207C10.8439 5.9002 10.8439 5.3502 10.7377 4.92832C10.4814 3.92207 9.7033 3.14395 8.69705 2.8877C8.2783 2.78145 7.70642 2.78457 7.2908 2.89082ZM8.54705 3.85957C9.1408 4.04082 9.63455 4.55957 9.79705 5.17207C9.85642 5.40957 9.85642 5.84082 9.79705 6.07832C9.68142 6.51582 9.3783 6.93145 8.9908 7.1877C8.5408 7.48145 7.93767 7.55957 7.43142 7.38457C7.1033 7.27207 6.8658 7.1127 6.63142 6.85645C6.30642 6.50332 6.15642 6.10957 6.15642 5.60645C6.15642 4.5502 7.07517 3.7002 8.1408 3.7752C8.2283 3.78145 8.40955 3.81895 8.54705 3.85957Z" fill="#999999"/>
</g>
<defs>
<clipPath id="clip0_26_685">
<rect width="16" height="16" fill="white"/>
</clipPath>
</defs>
</svg>
