<svg width="12" height="12" viewBox="0 0 12 12" fill="none" xmlns="http://www.w3.org/2000/svg">
<g id="arrow">
<g id="Black">
<path id="Vector" d="M8.84794 0.0304699C9.05887 0.100782 9.24872 0.269532 9.35419 0.48047C9.40341 0.581251 9.41044 0.630469 9.41044 0.832032C9.41044 1.24219 9.61434 1.00781 6.96356 3.66094L4.62919 6L6.96356 8.33672C9.61434 10.9922 9.41044 10.7578 9.41044 11.168C9.41044 11.3813 9.40341 11.4141 9.34247 11.5383C9.26044 11.6977 9.10575 11.85 8.94169 11.9297C8.84091 11.9813 8.79169 11.9883 8.57841 11.9883C8.35341 11.9883 8.32059 11.9836 8.20341 11.9227C8.09794 11.8664 7.57528 11.3555 5.40966 9.19219C3.19481 6.97969 2.73075 6.50391 2.66747 6.38672C2.59481 6.25313 2.59012 6.23438 2.59012 6C2.59012 5.76563 2.59481 5.74688 2.66747 5.61328C2.73075 5.49609 3.19481 5.02031 5.40966 2.80781C7.61044 0.609376 8.09794 0.133595 8.20341 0.0796881C8.31122 0.0257816 8.36747 0.0140629 8.54325 0.00703239C8.6745 0.00234413 8.78934 0.0117197 8.84794 0.0304699Z" fill="#121212"/>
</g>
</g>
</svg>
