<svg width="192" height="38" viewBox="0 0 192 38" fill="none" xmlns="http://www.w3.org/2000/svg">
<g clip-path="url(#clip0_176_2010)">
<path fill-rule="evenodd" clip-rule="evenodd" d="M5.81831 4.70024C2.84376 4.77571 0.658267 7.51832 1.24877 10.4346L5.47796 31.3213C5.92408 33.5246 7.8434 35.1204 10.0911 35.157L167.99 37.7249C169.776 37.7539 171.429 36.7863 172.279 35.2151L187.386 7.26403C189.135 4.0279 186.732 0.110432 183.054 0.203728L5.81831 4.70024Z" fill="#2E60FF"/>
<path fill-rule="evenodd" clip-rule="evenodd" d="M14.786 28.889H12.0959V11.7575H20.5909V28.889H17.8516V14.2075H14.7922V28.889H14.786ZM26.5066 11.7575C27.8609 11.7575 28.8704 12.1146 29.5291 12.8348C30.1878 13.555 30.5202 14.6077 30.5202 15.9927V18.2211C30.5202 19.6061 30.1878 20.6588 29.5291 21.379C28.8704 22.0992 27.8609 22.4563 26.5066 22.4563H25.2324V28.8952H22.5423V11.7575H26.5066ZM25.2324 14.2075V20.0063H26.5066C26.9314 20.0063 27.2576 19.8893 27.4854 19.6615C27.7132 19.4338 27.8301 19.009 27.8301 18.3873V15.8204C27.8301 15.1986 27.7132 14.7739 27.4854 14.5461C27.2576 14.3183 26.9314 14.2014 26.5066 14.2014H25.2324V14.2075ZM34.2383 24.9494C34.2383 25.5711 34.3675 26.0082 34.6199 26.2605C34.8723 26.5129 35.2109 26.6422 35.6356 26.6422C36.0604 26.6422 36.399 26.5129 36.6513 26.2605C36.9037 26.0082 37.033 25.5711 37.033 24.9494V15.6972C37.033 15.0755 36.9037 14.6384 36.6513 14.386C36.399 14.1337 36.0604 14.0044 35.6356 14.0044C35.2109 14.0044 34.8723 14.1337 34.6199 14.386C34.3675 14.6384 34.2383 15.0755 34.2383 15.6972V24.9494ZM31.5482 15.8696C31.5482 14.4845 31.8991 13.4196 32.6008 12.6747C33.3026 11.9299 34.3121 11.5605 35.6356 11.5605C36.9591 11.5605 37.9687 11.9299 38.6704 12.6747C39.3722 13.4196 39.7231 14.4845 39.7231 15.8696V24.777C39.7231 26.162 39.3722 27.227 38.6704 27.9718C37.9687 28.7167 36.9591 29.086 35.6356 29.086C34.3121 29.086 33.3026 28.7167 32.6008 27.9718C31.8991 27.227 31.5482 26.162 31.5482 24.777V15.8696ZM44.2229 28.889H41.459V11.7575H43.8597V22.5978L44.8385 18.8305L47.0423 11.7575H50.0032V28.889H47.5778V16.8237L46.476 21.0343L44.2229 28.889ZM57.1008 15.9681C57.1008 15.1986 56.9715 14.6815 56.7192 14.4168C56.4668 14.146 56.1282 14.0105 55.7035 14.0105C55.2787 14.0105 54.934 14.1398 54.6755 14.3922C54.4169 14.6446 54.2815 15.0817 54.2815 15.7034V17.1007H51.8069V15.8265C51.8069 14.4414 52.1393 13.3827 52.7979 12.6563C53.4566 11.9299 54.4477 11.5667 55.7712 11.5667C57.0947 11.5667 58.0919 11.9361 58.769 12.6809C59.4462 13.4258 59.7847 14.4907 59.7847 15.8758V16.319C59.7847 18.1472 59.1568 19.323 57.9011 19.8462C58.5844 20.1417 59.0707 20.5911 59.36 21.2067C59.6432 21.8161 59.7909 22.5671 59.7909 23.4473V24.7955C59.7909 26.1805 59.4523 27.2455 58.7752 27.9903C58.0981 28.7352 57.1008 29.1045 55.7773 29.1045C54.4538 29.1045 53.4566 28.7352 52.7795 27.9903C52.1023 27.2455 51.7638 26.1805 51.7638 24.7955V22.9118H54.3061V24.9678C54.3061 25.5896 54.4354 26.0266 54.6878 26.279C54.9401 26.5314 55.2787 26.6607 55.7035 26.6607C56.1282 26.6607 56.4668 26.5314 56.7192 26.2667C56.9715 26.0082 57.1008 25.4911 57.1008 24.7278V23.3796C57.1008 22.5794 56.9592 22.0192 56.6822 21.6929C56.4052 21.3667 55.9558 21.2005 55.3341 21.2005H54.6755V18.7505H55.4819C55.9866 18.7505 56.3806 18.6212 56.6699 18.3565C56.9531 18.098 57.1008 17.624 57.1008 16.9345V15.9681ZM65.6635 11.7575C67.067 11.7575 68.0827 12.0838 68.7106 12.7363C69.3385 13.3888 69.6524 14.3737 69.6524 15.6972V16.3066C69.6524 17.1869 69.5109 17.9133 69.2339 18.4858C68.9568 19.0583 68.5136 19.483 67.9104 19.76C68.6429 20.0371 69.16 20.4926 69.4616 21.1205C69.7633 21.7484 69.9171 22.5178 69.9171 23.435V24.8324C69.9171 26.1559 69.5724 27.1593 68.8891 27.8549C68.2058 28.5505 67.184 28.8952 65.8297 28.8952H61.5945V11.7575H65.6635ZM64.2969 21.182V26.4452H65.8359C66.2914 26.4452 66.6423 26.3221 66.8762 26.0759C67.1101 25.8296 67.2332 25.3926 67.2332 24.7524V23.2565C67.2332 22.4563 67.0978 21.9084 66.8269 21.6191C66.5561 21.3236 66.1129 21.1759 65.4911 21.1759H64.2969V21.182ZM64.2969 14.2075V18.7382H65.3496C65.8543 18.7382 66.2483 18.6089 66.5376 18.3442C66.8208 18.0857 66.9685 17.6117 66.9685 16.9222V15.9681C66.9685 15.3464 66.8577 14.897 66.6361 14.62C66.4145 14.343 66.0698 14.2014 65.5958 14.2014H64.2969V14.2075ZM74.0107 24.9494C74.0107 25.5711 74.14 26.0082 74.3924 26.2605C74.6448 26.5129 74.9834 26.6422 75.4081 26.6422C75.8328 26.6422 76.1714 26.5129 76.4238 26.2605C76.6762 26.0082 76.8055 25.5711 76.8055 24.9494V15.6972C76.8055 15.0755 76.6762 14.6384 76.4238 14.386C76.1714 14.1337 75.8328 14.0044 75.4081 14.0044C74.9834 14.0044 74.6448 14.1337 74.3924 14.386C74.14 14.6384 74.0107 15.0755 74.0107 15.6972V24.9494ZM71.3207 15.8696C71.3207 14.4845 71.6716 13.4196 72.3733 12.6747C73.0751 11.9299 74.0846 11.5605 75.4081 11.5605C76.7316 11.5605 77.7411 11.9299 78.4429 12.6747C79.1447 13.4196 79.4955 14.4845 79.4955 15.8696V24.777C79.4955 26.162 79.1447 27.227 78.4429 27.9718C77.7411 28.7167 76.7316 29.086 75.4081 29.086C74.0846 29.086 73.0751 28.7167 72.3733 27.9718C71.6716 27.227 71.3207 26.162 71.3207 24.777V15.8696ZM89.0124 31.1913V28.889H83.2629V31.1913H80.6405V26.4945H81.6932C81.9209 26.199 82.081 25.885 82.1733 25.5403C82.2656 25.1956 82.3272 24.7708 82.358 24.2661L82.9674 11.7575H90.5082V26.4883H91.684V31.1852H89.0124V31.1913ZM84.9988 24.2168C84.968 24.8693 84.888 25.3618 84.7649 25.6881C84.6418 26.0143 84.4694 26.2852 84.2416 26.4945H87.7627V14.2075H85.4851L84.9988 24.2168ZM95.9376 28.889H93.1737V11.7575H95.5744V22.5978L96.5532 18.8305L98.757 11.7575H101.718V28.889H99.2925V16.8237L98.1906 21.0343L95.9376 28.889ZM102.838 11.7575H111.161V14.2075H108.348V28.889H105.658V14.2075H102.844V11.7575H102.838ZM115.027 18.9782H118.72V21.4283H115.027V26.4452H119.674V28.8952H112.33V11.7575H119.674V14.2075H115.027V18.9782ZM120.585 26.4698C120.893 26.4698 121.152 26.4514 121.355 26.4206C121.558 26.3898 121.724 26.3098 121.86 26.1867C121.989 26.0636 122.081 25.885 122.143 25.6511C122.198 25.4172 122.235 25.1033 122.254 24.7093L122.697 11.7637H130.305V28.8952H127.566V14.2137H125.214L124.919 24.5677C124.87 26.1313 124.537 27.2516 123.928 27.9226C123.319 28.5936 122.34 28.926 121.004 28.926H120.585V26.4698ZM132.355 28.889V11.7575H135.045V18.1965H136.32C137.674 18.1965 138.683 18.5535 139.342 19.2737C140.001 19.994 140.333 21.0466 140.333 22.4316V24.66C140.333 26.0451 140.001 27.0977 139.342 27.8179C138.683 28.5382 137.674 28.8952 136.32 28.8952H132.355V28.889ZM136.32 26.4452C136.744 26.4452 137.071 26.3282 137.298 26.1005C137.526 25.8727 137.643 25.448 137.643 24.8262V22.2593C137.643 21.6376 137.526 21.2128 137.298 20.985C137.071 20.7573 136.744 20.6403 136.32 20.6403H135.045V26.4391H136.32V26.4452ZM144.544 26.2975V28.889H141.952V26.2975H144.544ZM150.465 11.7575C151.82 11.7575 152.829 12.1146 153.488 12.8348C154.147 13.555 154.479 14.6077 154.479 15.9927V18.2211C154.479 19.6061 154.147 20.6588 153.488 21.379C152.829 22.0992 151.82 22.4563 150.465 22.4563H149.191V28.8952H146.501V11.7575H150.465ZM149.191 14.2075V20.0063H150.465C150.89 20.0063 151.216 19.8893 151.444 19.6615C151.672 19.4338 151.789 19.009 151.789 18.3873V15.8204C151.789 15.1986 151.672 14.7739 151.444 14.5461C151.216 14.3183 150.89 14.2014 150.465 14.2014H149.191V14.2075ZM160.524 26.9561H159.521C158.166 26.9561 157.157 26.5991 156.498 25.8789C155.839 25.1587 155.507 24.106 155.507 22.721V18.0487C155.507 16.6637 155.839 15.611 156.498 14.8908C157.157 14.1706 158.166 13.8136 159.521 13.8136H160.524V11.7575H163.165V13.8136H164.168C165.523 13.8136 166.532 14.1706 167.191 14.8908C167.849 15.611 168.182 16.6637 168.182 18.0487V22.721C168.182 24.106 167.849 25.1587 167.191 25.8789C166.532 26.5991 165.523 26.9561 164.168 26.9561H163.165V28.889H160.524V26.9561ZM163.171 16.1897V24.6108H164.174C164.599 24.6108 164.932 24.4815 165.165 24.2168C165.399 23.9583 165.523 23.5151 165.523 22.8933V17.8764C165.523 17.2546 165.406 16.8176 165.165 16.5652C164.932 16.3128 164.599 16.1835 164.174 16.1835H163.171V16.1897ZM160.524 16.1897H159.521C159.096 16.1897 158.763 16.319 158.53 16.5714C158.296 16.8237 158.173 17.2608 158.173 17.8825V22.8995C158.173 23.5212 158.289 23.9583 158.53 24.223C158.763 24.4815 159.096 24.6169 159.521 24.6169H160.524V16.1897Z" fill="white"/>
<path fill-rule="evenodd" clip-rule="evenodd" d="M167.012 6.74973C165.935 6.50444 166.061 4.93289 167.162 4.86123L183.02 3.82963C183.767 3.78104 184.279 4.57019 183.929 5.23208L178.435 15.6289C178.008 16.4357 176.802 16.2451 176.645 15.3461L175.592 9.30742C175.526 8.9274 175.238 8.62429 174.862 8.53858L167.012 6.74973Z" fill="#FF5454"/>
</g>
<defs>
<clipPath id="clip0_176_2010">
<rect width="191.445" height="37.5502" fill="white"/>
</clipPath>
</defs>
</svg>
