<svg width="18" height="18" viewBox="0 0 18 18" fill="none" xmlns="http://www.w3.org/2000/svg">
<path d="M6.86992 8.15445C6.79492 8.14695 6.70492 8.14695 6.62242 8.15445C4.83742 8.09445 3.41992 6.63195 3.41992 4.83195C3.41992 2.99445 4.90492 1.50195 6.74992 1.50195C8.58742 1.50195 10.0799 2.99445 10.0799 4.83195C10.0724 6.63195 8.65492 8.09445 6.86992 8.15445Z" stroke="#A6B7D4" stroke-width="1.5" stroke-linecap="round" stroke-linejoin="round"/>
<path d="M12.3084 2.99805C13.7634 2.99805 14.9334 4.17555 14.9334 5.62305C14.9334 7.04055 13.8084 8.19555 12.4059 8.24805C12.3459 8.24055 12.2784 8.24055 12.2109 8.24805" stroke="#A6B7D4" stroke-width="1.5" stroke-linecap="round" stroke-linejoin="round"/>
<path d="M3.12102 10.918C1.30602 12.133 1.30602 14.113 3.12102 15.3205C5.18352 16.7005 8.56602 16.7005 10.6285 15.3205C12.4435 14.1055 12.4435 12.1255 10.6285 10.918C8.57352 9.54555 5.19102 9.54555 3.12102 10.918Z" stroke="#A6B7D4" stroke-width="1.5" stroke-linecap="round" stroke-linejoin="round"/>
<path d="M13.7539 15.002C14.2939 14.8895 14.8039 14.672 15.2239 14.3495C16.3939 13.472 16.3939 12.0245 15.2239 11.147C14.8114 10.832 14.3089 10.622 13.7764 10.502" stroke="#A6B7D4" stroke-width="1.5" stroke-linecap="round" stroke-linejoin="round"/>
</svg>
