<svg width="60" height="60" viewBox="0 0 60 60" fill="none" xmlns="http://www.w3.org/2000/svg">
<path d="M7.5 17.5V42.5C7.5 50 11.25 55 20 55H40C48.75 55 52.5 50 52.5 42.5V17.5C52.5 10 48.75 5 40 5H20C11.25 5 7.5 10 7.5 17.5Z" stroke="#A6B7D4" stroke-width="2" stroke-miterlimit="10" stroke-linecap="round" stroke-linejoin="round"/>
<path d="M25.25 5V24.65C25.25 25.75 26.5501 26.3 27.3501 25.575L33.1499 20.2251C33.6249 19.7751 34.3751 19.7751 34.8501 20.2251L40.6499 25.575C41.4499 26.3 42.75 25.75 42.75 24.65V5H25.25Z" fill="#156AE8" stroke="#156AE8" stroke-width="2" stroke-miterlimit="10" stroke-linecap="round" stroke-linejoin="round"/>
<path d="M26.875 34H16.25" stroke="#A6B7D4" stroke-width="2" stroke-miterlimit="10" stroke-linecap="round" stroke-linejoin="round"/>
<path d="M37.5 44H16.25" stroke="#A6B7D4" stroke-width="2" stroke-miterlimit="10" stroke-linecap="round" stroke-linejoin="round"/>
</svg>
