<svg width="24" height="24" viewBox="0 0 24 24" fill="none" xmlns="http://www.w3.org/2000/svg">
<g clip-path="url(#clip0_78_756)">
<path d="M13.4999 23.9295C15.3234 23.7045 17.0906 23.0482 18.614 22.0357C20.9765 20.4654 22.6968 18.1686 23.5031 15.4967C23.6953 14.8779 23.8828 13.9357 23.9531 13.3029C24.014 12.717 24.014 11.2826 23.9531 10.6967C23.4468 5.94355 20.0859 1.88418 15.4968 0.496679C14.8781 0.304491 13.9359 0.116991 13.3031 0.0466788C12.7171 -0.0142588 11.2828 -0.0142589 10.6968 0.0466785C7.92183 0.341991 5.34839 1.60293 3.37026 3.6373C2.01558 5.03887 1.05464 6.66074 0.496827 8.50293C0.149951 9.64199 -4.86188e-05 10.6967 -4.87327e-05 11.9998C-4.88183e-05 12.9795 0.0468261 13.5186 0.215577 14.367C1.06401 18.6795 4.27964 22.2232 8.50308 23.5029C9.12183 23.6951 10.064 23.8826 10.6968 23.9529C11.3109 24.0186 12.8953 24.0045 13.4999 23.9295ZM10.514 22.3592C9.36557 22.1904 8.36245 21.8764 7.33589 21.3654C4.63589 20.0154 2.62964 17.5498 1.87026 14.6389C1.43433 12.9748 1.43433 11.0248 1.87026 9.36074C2.82183 5.71387 5.71401 2.82168 9.36089 1.87012C11.025 1.43418 12.975 1.43418 14.639 1.87012C17.1468 2.52168 19.3546 4.12012 20.7796 6.30449C21.375 7.21855 21.8531 8.30605 22.1296 9.36074C22.5656 11.0248 22.5656 12.9748 22.1296 14.6389C21.0749 18.6842 17.6812 21.7311 13.5328 22.3592C12.7171 22.4811 11.339 22.4811 10.514 22.3592Z" fill="#999999"/>
<path d="M12.1219 17.1046C12.3328 17.0436 12.5906 16.739 12.6328 16.5046C12.6984 16.1155 12.6656 16.078 10.9547 14.3577L9.35156 12.7499L13.4297 12.7499C17.4141 12.7499 17.5125 12.7452 17.6625 12.6561C17.8875 12.5155 18 12.3046 18 11.9999C18 11.6952 17.8875 11.4843 17.6625 11.3436C17.5125 11.2546 17.4141 11.2499 13.4297 11.2499L9.35156 11.2499L10.9547 9.64676C12.6703 7.91708 12.6984 7.88426 12.6328 7.48583C12.5859 7.21395 12.2859 6.91395 12.0141 6.86708C11.6063 6.80145 11.625 6.7827 9.24375 9.15926C8.025 10.3733 6.99375 11.4233 6.95625 11.4936C6.86719 11.6624 6.86719 12.3374 6.95625 12.5061C6.99375 12.5765 8.01094 13.6171 9.22031 14.8218C10.725 16.3265 11.4703 17.0343 11.5875 17.0858C11.7797 17.1655 11.9062 17.1702 12.1219 17.1046Z" fill="#999999"/>
</g>
<defs>
<clipPath id="clip0_78_756">
<rect width="24" height="24" fill="white" transform="translate(24 24) rotate(-180)"/>
</clipPath>
</defs>
</svg>
