<svg width="20" height="22" viewBox="0 0 20 22" fill="none" xmlns="http://www.w3.org/2000/svg">
<path fill-rule="evenodd" clip-rule="evenodd" d="M7.48698 0.0443264C6.03986 0.19464 4.59848 0.771019 3.35558 1.69646C2.89501 2.03941 2.04888 2.88559 1.70525 3.34695C0.637968 4.77982 0.0673894 6.40482 0.00602594 8.1865C-0.0305086 9.24809 0.0979294 10.1622 0.422933 11.1531C0.828458 12.3895 1.52513 13.5286 2.44752 14.4633C3.79979 15.8337 5.50869 16.6755 7.41772 16.9115C7.93163 16.9751 9.24526 16.9406 9.73495 16.8507C10.8737 16.6417 11.8869 16.2496 12.8033 15.6634L13.1579 15.4366L15.6428 18.0522C17.0095 19.4908 18.1844 20.7162 18.2538 20.7754C18.6888 21.1463 19.4454 21.0441 19.7775 20.5697C19.9442 20.3313 19.9959 20.1752 19.9996 19.8987C20.0055 19.453 19.9769 19.4179 17.3511 16.6562C16.0376 15.2746 14.9212 14.094 14.8702 14.0327L14.7776 13.9211L14.9945 13.6397C16.4646 11.7328 17.0342 9.22441 16.5546 6.77038C16.3148 5.54419 15.6873 4.19613 14.8871 3.18827C13.0948 0.93102 10.3161 -0.249528 7.48698 0.0443264ZM9.14853 2.27329C11.7758 2.62781 13.8567 4.57688 14.4142 7.20552C14.525 7.72784 14.5663 8.77252 14.4959 9.27071C14.2942 10.6988 13.7008 11.9186 12.729 12.9036C11.7919 13.8532 10.6296 14.4555 9.31111 14.6746C8.86877 14.7481 7.89716 14.7484 7.42282 14.6752C5.71364 14.4114 4.1655 13.4061 3.21434 11.9423C2.87443 11.4191 2.69164 11.0404 2.50362 10.4696C2.29907 9.84865 2.2177 9.38358 2.19162 8.68595C2.06071 5.18798 4.84507 2.24862 8.31731 2.21923C8.54008 2.21734 8.91414 2.24164 9.14853 2.27329Z" fill="#999999"/>
</svg>
