<svg width="24" height="23" viewBox="0 0 24 23" fill="none" xmlns="http://www.w3.org/2000/svg">
<path d="M11.2351 0.477345C11.548 -0.159116 12.452 -0.159114 12.7649 0.477347L15.8123 6.67667C15.9365 6.9294 16.1767 7.10458 16.4545 7.14511L23.2688 8.13922C23.9684 8.24128 24.2477 9.10443 23.7415 9.59985L18.8106 14.4253C18.6096 14.6221 18.5179 14.9055 18.5653 15.1833L19.7293 21.997C19.8489 22.6966 19.1175 23.23 18.4918 22.8997L12.3969 19.6827C12.1484 19.5516 11.8516 19.5516 11.6031 19.6827L5.50822 22.8997C4.88248 23.23 4.15115 22.6966 4.27065 21.997L5.43467 15.1833C5.48212 14.9055 5.39039 14.6221 5.18937 14.4253L0.258509 9.59985C-0.247724 9.10443 0.0316229 8.24128 0.731219 8.13922L7.5455 7.14511C7.82331 7.10458 8.06346 6.9294 8.1877 6.67666L11.2351 0.477345Z" fill="#E4ECF7"/>
</svg>
