<svg width="18" height="16" viewBox="0 0 18 16" fill="none" xmlns="http://www.w3.org/2000/svg">
<path d="M8.59798 0.332066C8.81563 -0.110689 9.44448 -0.110688 9.66213 0.332067L11.7821 4.64464C11.8685 4.82046 12.0356 4.94232 12.2288 4.97051L16.9692 5.66207C17.4559 5.73306 17.6502 6.33352 17.2981 6.67815L13.8679 10.035C13.728 10.1719 13.6642 10.3691 13.6972 10.5623L14.507 15.3023C14.5901 15.7889 14.0814 16.16 13.6461 15.9302L9.40616 13.6923C9.23331 13.6011 9.0268 13.6011 8.85395 13.6923L4.61403 15.9303C4.17874 16.16 3.66998 15.7889 3.75312 15.3023L4.56287 10.5623C4.59588 10.3691 4.53207 10.1719 4.39222 10.035L0.962059 6.67815C0.609897 6.33352 0.804225 5.73306 1.2909 5.66206L6.03127 4.97051C6.22453 4.94232 6.39159 4.82046 6.47802 4.64464L8.59798 0.332066Z" fill="#DBE6F4"/>
</svg>
