<svg width="17" height="16" viewBox="0 0 17 16" fill="none" xmlns="http://www.w3.org/2000/svg">
<path d="M7.81575 0.332066C8.0334 -0.110689 8.66226 -0.110688 8.87991 0.332067L10.9999 4.64464C11.0863 4.82046 11.2534 4.94232 11.4466 4.97051L16.187 5.66207C16.6737 5.73306 16.868 6.33352 16.5158 6.67815L13.0857 10.035C12.9458 10.1719 12.882 10.3691 12.915 10.5623L13.7248 15.3023C13.8079 15.7889 13.2991 16.16 12.8639 15.9302L8.62394 13.6923C8.45108 13.6011 8.24458 13.6011 8.07172 13.6923L3.8318 15.9303C3.39651 16.16 2.88775 15.7889 2.97089 15.3023L3.78064 10.5623C3.81365 10.3691 3.74984 10.1719 3.61 10.035L0.179832 6.67815C-0.17233 6.33352 0.0219986 5.73306 0.508674 5.66206L5.24904 4.97051C5.4423 4.94232 5.60937 4.82046 5.6958 4.64464L7.81575 0.332066Z" fill="#FFC400"/>
</svg>
