<svg width="169" height="52" viewBox="0 0 169 52" fill="none" xmlns="http://www.w3.org/2000/svg">
<path d="M26.9693 44.7201C37.0937 44.7201 45.3024 37.1691 45.3024 27.8566C45.3024 18.5442 37.0937 10.9932 26.9693 10.9932C16.845 10.9932 8.63623 18.5442 8.63623 27.8566C8.63623 37.1691 16.845 44.7201 26.9693 44.7201ZM26.9693 15.6283C35.821 15.6283 43.0035 22.0863 43.0035 30.0559C43.0035 38.0255 35.821 44.4773 26.9693 44.4773C18.1177 44.4773 10.9351 38.0193 10.9351 30.0559C10.9351 22.0927 18.1177 15.6283 26.9693 15.6283Z" fill="#3043B8" stroke="white" stroke-opacity="0.01" stroke-width="0.26176" stroke-miterlimit="10"/>
<path d="M26.9693 43.9749C34.3532 43.9749 40.341 38.7098 40.341 32.208C40.341 25.7062 34.3534 20.4473 26.9693 20.4473C19.5852 20.4473 13.5977 25.7124 13.5977 32.2265C13.5977 38.7407 19.5852 43.9749 26.9693 43.9749ZM26.9693 24.3696C32.944 24.3696 37.7886 28.5354 37.7886 33.682C37.7886 38.8286 32.944 42.9944 26.9693 42.9944C20.9946 42.9944 16.15 38.8224 16.15 33.682C16.15 28.5416 20.9946 24.3696 26.9693 24.3696Z" fill="#3043B8" stroke="white" stroke-opacity="0.01" stroke-width="0.26176" stroke-miterlimit="10"/>
<path d="M26.9687 42.5638C32.0017 42.5638 36.0605 39.5972 36.0605 35.9435C36.0605 32.2898 32.0017 29.3293 26.9687 29.3293C21.9358 29.3293 17.877 32.2898 17.877 35.9747C17.877 39.6596 21.9358 42.5638 26.9687 42.5638ZM26.9687 33.4764C30.9171 33.4764 34.1124 35.3064 34.1124 37.5737C34.1124 38.8228 33.0798 39.997 31.4692 40.7527C31.9212 40.3574 32.1881 39.8034 32.2095 39.2162C32.2095 37.5549 29.8586 36.2058 26.9622 36.2058C24.0657 36.2058 21.7148 37.5549 21.7148 39.2162C21.7362 39.8034 22.0031 40.3574 22.4551 40.7527C20.8446 39.997 19.8119 38.879 19.8119 37.5737C19.8249 35.3502 23.0201 33.4764 26.9685 33.4764H26.9687Z" fill="#3043B8" stroke="white" stroke-opacity="0.01" stroke-width="0.26176" stroke-miterlimit="10"/>
<path d="M19.5161 43.2894L17.0288 49.0916C23.4009 51.635 30.5631 51.6362 36.936 49.0948C43.3089 46.5534 48.3689 41.6784 51 35.5447L44.9929 33.1526C43.0149 37.7482 39.2182 41.3989 34.4395 43.3002C29.6608 45.2016 24.2919 45.1978 19.5161 43.2894Z" fill="#3043B8" stroke="white" stroke-opacity="0.01" stroke-width="0.26176" stroke-miterlimit="10"/>
<path d="M40.739 12.7419C42.5498 14.4783 43.9865 16.5412 44.9666 18.8128L50.9997 16.4207C46.9744 7.07654 37.4881 0.988383 26.9712 1.00002V7.2456C32.1365 7.24997 37.0886 9.22692 40.739 12.7419Z" fill="#3043B8" stroke="white" stroke-opacity="0.01" stroke-width="0.26176" stroke-miterlimit="10"/>
<path d="M8.60563 8.31938C-1.53521 18.0751 -1.53521 33.8888 8.60563 43.6439L13.2036 39.2218C8.60795 34.7978 6.6102 28.4604 7.87752 22.3266C9.14496 16.1929 13.5107 11.0719 19.516 8.67409L17.0287 2.87183C13.8756 4.13607 11.0131 5.98694 8.60563 8.31815V8.31938Z" fill="#3043B8" stroke="white" stroke-opacity="0.01" stroke-width="0.26176" stroke-miterlimit="10"/>
<path d="M68.9106 17.1654C70.4827 17.1654 71.8514 17.4801 73.017 18.1096C74.1824 18.7349 75.0924 19.6586 75.7467 20.8807C76.405 22.1028 76.7573 23.5925 76.8038 25.35C76.8193 25.6607 76.827 25.8691 76.827 25.9754V26.2696C76.827 26.3596 76.8193 26.5414 76.8038 26.8153C76.7573 28.5769 76.405 30.0646 75.7467 31.2785C75.0924 32.4924 74.1824 33.4161 73.017 34.0496C71.8515 34.6831 70.4827 34.9999 68.9106 34.9999C67.3502 34.9999 65.9853 34.6832 64.8159 34.0496C63.6427 33.4161 62.7269 32.4924 62.0687 31.2785C61.4143 30.0646 61.0639 28.5769 61.0174 26.8153C61.0174 26.5087 61.0136 26.3023 61.0058 26.1961C60.9981 26.0898 60.9981 25.9917 61.0058 25.9018C61.0135 25.8119 61.0174 25.628 61.0174 25.35C61.0639 23.5925 61.4143 22.1028 62.0687 20.8807C62.7269 19.6586 63.6426 18.7349 64.8159 18.1096C65.9852 17.4801 67.3501 17.1654 68.9106 17.1654ZM65.3909 26.8888C65.4219 28.1927 65.7123 29.2002 66.2621 29.9113C66.8081 30.6184 67.6909 30.9719 68.9106 30.9719C70.1458 30.9719 71.0324 30.6184 71.5706 29.9113C72.1127 29.2001 72.3992 28.1927 72.4302 26.8888C72.4457 26.5333 72.4535 26.2655 72.4535 26.0857C72.4535 25.9059 72.4457 25.6361 72.4302 25.2764C72.3993 23.9767 72.1127 22.9712 71.5706 22.2601C71.0324 21.553 70.1458 21.1995 68.9106 21.1995C67.6909 21.1995 66.8081 21.553 66.2621 22.2601C65.7123 22.9713 65.4219 23.9767 65.3909 25.2764C65.3755 25.6361 65.3677 25.9059 65.3677 26.0857C65.3677 26.2655 65.3755 26.5332 65.3909 26.8888ZM89.5233 34.9999C88.261 34.9999 87.1613 34.8221 86.2243 34.4666C85.2912 34.1069 84.5168 33.6308 83.9011 33.0381C83.2855 32.4414 82.8228 31.7731 82.513 31.0333C82.2032 30.2895 82.0329 29.5354 82.0019 28.7711H86.1257C86.1682 29.1307 86.3018 29.4904 86.5264 29.8501C86.751 30.2057 87.0956 30.5061 87.5603 30.7513C88.021 30.9965 88.6289 31.1191 89.384 31.1191C91.5136 31.1191 92.6791 30.036 92.8804 27.8698H87.3975V24.1055H92.8572C92.7333 23.0633 92.3906 22.2949 91.8292 21.8004C91.2639 21.3017 90.4333 21.0524 89.3375 21.0524C88.3037 21.0524 87.5293 21.2854 87.0143 21.7513C86.4955 22.2132 86.176 22.7629 86.056 23.4005H82.0251C82.0871 22.2602 82.4239 21.2159 83.0357 20.2676C83.6436 19.3235 84.4954 18.5715 85.5912 18.0115C86.687 17.4475 87.9977 17.1655 89.5234 17.1655C92.0557 17.1655 93.9628 17.8787 95.2443 19.3051C96.5221 20.7315 97.2074 22.7465 97.3003 25.35C97.3158 25.6607 97.3236 25.9059 97.3236 26.0857C97.3236 26.2656 97.3158 26.5088 97.3003 26.8153C97.2074 29.4556 96.5105 31.4808 95.2095 32.8909C93.9046 34.2969 92.0091 34.9999 89.5233 34.9999ZM102.272 29.3843H106.506C106.599 29.9361 106.882 30.3673 107.354 30.6779C107.822 30.9885 108.488 31.1438 109.352 31.1438C110.2 31.1438 110.821 31.0049 111.216 30.7269C111.611 30.449 111.809 30.0178 111.809 29.4334C111.809 28.8284 111.611 28.4258 111.216 28.2256C110.821 28.0212 110.215 27.9191 109.398 27.9191H107.133V24.1057H109.259C110.076 24.1057 110.635 23.9708 110.937 23.7011C111.239 23.4354 111.39 23.0655 111.39 22.5914C111.39 22.1173 111.212 21.7392 110.856 21.4572C110.504 21.1711 109.94 21.028 109.166 21.028C108.395 21.028 107.809 21.1793 107.406 21.4817C107.007 21.7801 106.769 22.1581 106.692 22.6159H102.458C102.566 21.4756 102.928 20.4987 103.544 19.6854C104.159 18.8721 104.965 18.2488 105.96 17.8155C106.955 17.3822 108.047 17.1656 109.236 17.1656C111.381 17.1656 113.001 17.6234 114.097 18.5389C115.193 19.4504 115.741 20.6377 115.741 22.1009C115.741 23.0001 115.508 23.7583 115.044 24.3754C114.583 24.9926 114.074 25.4156 113.516 25.6445V25.8407C113.919 25.9878 114.322 26.2249 114.724 26.5519C115.123 26.8748 115.462 27.2896 115.741 27.7964C116.019 28.2992 116.159 28.8857 116.159 29.556C116.159 31.3135 115.553 32.6602 114.341 33.596C113.129 34.532 111.458 35 109.329 35C107.168 35 105.487 34.4952 104.287 33.4857C103.083 32.4762 102.411 31.109 102.272 29.3843ZM121.496 34.6874V30.31H125.73V34.6874H121.496ZM131.649 17.4844H138.479C140.64 17.4844 142.222 18.0178 143.224 19.0845C144.227 20.1513 144.729 21.6064 144.729 23.4497C144.729 25.289 144.212 26.7461 143.178 27.8211C142.144 28.896 140.593 29.4335 138.525 29.4335H135.982V34.6876H131.649L131.649 17.4844ZM135.981 21.2978V25.5956H138.247C138.986 25.5956 139.526 25.3851 139.867 24.9641C140.208 24.539 140.378 24.0343 140.378 23.4498C140.378 22.8613 140.216 22.3545 139.89 21.9294C139.565 21.5084 139.017 21.2979 138.247 21.2979L135.981 21.2978ZM161.339 17V18.7044C162.788 18.7371 164.075 18.9823 165.202 19.4401C166.328 19.8978 167.223 20.6111 167.885 21.5797C168.551 22.5484 168.915 23.8215 168.977 25.3992C168.992 25.6608 169 25.861 169 26C169 26.1389 168.992 26.3474 168.977 26.6253C168.915 28.1539 168.549 29.4067 167.879 30.3835C167.205 31.3603 166.305 32.0817 165.178 32.5477C164.052 33.0095 162.772 33.2568 161.339 33.2895V34.9509H157.152V33.2895C155.715 33.2568 154.43 33.0095 153.295 32.5477C152.161 32.0817 151.263 31.3644 150.6 30.3957C149.934 29.4271 149.565 28.1702 149.491 26.6253C149.476 26.3474 149.468 26.1267 149.468 25.9632C149.468 25.7997 149.476 25.5953 149.491 25.3501C149.565 23.8051 149.934 22.5524 150.6 21.5919C151.263 20.6314 152.157 19.9183 153.284 19.4523C154.411 18.9864 155.7 18.7371 157.152 18.7044V17H161.339ZM153.818 26.5519C153.926 28.5709 155.038 29.6132 157.152 29.6786V22.2971C155.038 22.3624 153.926 23.3965 153.818 25.3992C153.802 25.6608 153.795 25.8488 153.795 25.9633C153.795 26.0777 153.802 26.2739 153.818 26.5519ZM161.339 22.297V29.6785C163.454 29.5968 164.557 28.5627 164.65 26.5763C164.65 26.4128 164.654 26.3107 164.662 26.2698C164.669 26.2289 164.673 26.1594 164.673 26.0614C164.673 25.9633 164.665 25.7507 164.65 25.4238C164.557 23.3883 163.454 22.346 161.339 22.297Z" fill="#3043B8"/>
</svg>
